<svg width="500" height="374" viewBox="0 0 500 374" fill="none" xmlns="http://www.w3.org/2000/svg">
<g clip-path="url(#clip0_194_2872)">
<path d="M500 328.328H0V328.578H500V328.328Z" fill="#EBEBEB"/>
<path d="M449.901 344.424H428.222V344.674H449.901V344.424Z" fill="#EBEBEB"/>
<path d="M344.667 339.236H310.558V339.486H344.667V339.236Z" fill="#EBEBEB"/>
<path d="M441.111 335.139H396.586V335.389H441.111V335.139Z" fill="#EBEBEB"/>
<path d="M173.015 340.182H161.877V340.432H173.015V340.182Z" fill="#EBEBEB"/>
<path d="M152.974 340.182H114.585V340.432H152.974V340.182Z" fill="#EBEBEB"/>
<path d="M94.0019 335.959H66.3069V336.209H94.0019V335.959Z" fill="#EBEBEB"/>
<path d="M237.014 283.731H43.915C40.768 283.731 38.207 281.17 38.207 278.023V6.59081C38.207 3.44381 40.768 0.882812 43.915 0.882812H237.014C240.16 0.882812 242.721 3.44381 242.721 6.59081V278.023C242.721 281.17 240.16 283.731 237.014 283.731ZM43.915 1.13381C40.905 1.13381 38.457 3.58181 38.457 6.59181V278.024C38.457 281.034 40.905 283.482 43.915 283.482H237.014C240.023 283.482 242.471 281.034 242.471 278.024V6.59081C242.471 3.58181 240.023 1.13281 237.014 1.13281L43.915 1.13381Z" fill="#EBEBEB"/>
<path d="M453.31 283.731H260.212C257.065 283.731 254.505 281.17 254.505 278.023V6.59081C254.505 3.44381 257.066 0.882812 260.212 0.882812H453.31C456.458 0.882812 459.018 3.44381 459.018 6.59081V278.023C459.019 281.17 456.458 283.731 453.31 283.731ZM260.212 1.13381C257.203 1.13381 254.755 3.58181 254.755 6.59181V278.024C254.755 281.034 257.203 283.482 260.212 283.482H453.31C456.32 283.482 458.768 281.034 458.768 278.024V6.59081C458.768 3.58181 456.32 1.13281 453.31 1.13281L260.212 1.13381Z" fill="#EBEBEB"/>
<path d="M64.6884 158.039L227.335 158.039L227.335 21.2091L64.6884 21.2091L64.6884 158.039Z" fill="#E6E6E6"/>
<path d="M60.8184 158.039L225.526 158.039L225.526 21.2091L60.8184 21.2091L60.8184 158.039Z" fill="#F0F0F0"/>
<path d="M64.6884 163.906L227.335 163.906V158.039L64.6884 158.039V163.906Z" fill="#E6E6E6"/>
<path d="M54.3716 163.906L219.08 163.906V158.039L54.3716 158.039V163.906Z" fill="#F0F0F0"/>
<path d="M220.109 152.622L220.109 26.627L66.2359 26.627L66.2359 152.622L220.109 152.622Z" fill="#FAFAFA"/>
<path d="M157.67 152.621L142.592 26.627H119.063L134.141 152.621H157.67Z" fill="white"/>
<path d="M217.601 147.229C217.815 147.229 217.988 147.056 217.988 146.842V30.1507C217.988 29.9367 217.815 29.7637 217.601 29.7637C217.387 29.7637 217.214 29.9367 217.214 30.1507V146.842C217.214 147.055 217.387 147.229 217.601 147.229Z" fill="#F0F0F0"/>
<path d="M129.087 152.621L114.008 26.627H104.835L119.913 152.621H129.087Z" fill="white"/>
<path d="M66.9243 152.622L66.9243 26.627H66.2363L66.2363 152.622H66.9243Z" fill="#E6E6E6"/>
<path opacity="0.6" d="M59.5369 36.8424H222.184L222.683 28.7324H60.0359L59.5369 36.8424Z" fill="#EBEBEB"/>
<path opacity="0.6" d="M59.5371 50.1432H222.184L222.683 42.0332H60.0361L59.5371 50.1432Z" fill="#EBEBEB"/>
<path opacity="0.6" d="M59.5371 63.4459H222.184L222.683 55.3359H60.0361L59.5371 63.4459Z" fill="#EBEBEB"/>
<path opacity="0.6" d="M59.5371 76.7467H222.184L222.683 68.6367H60.0361L59.5371 76.7467Z" fill="#EBEBEB"/>
<path opacity="0.6" d="M59.5369 90.0485H222.184L222.683 81.9375H60.0359L59.5369 90.0485Z" fill="#EBEBEB"/>
<path opacity="0.6" d="M59.5371 103.35H222.184L222.683 95.2402H60.0361L59.5371 103.35Z" fill="#EBEBEB"/>
<path d="M424.946 44.4629H261.973V153.914H424.946V44.4629Z" fill="#F5F5F5"/>
<path d="M424.946 153.914H428.778V44.4631H424.946V153.914Z" fill="#E0E0E0"/>
<path d="M318.77 66.002H286.269V115.47H318.77V66.002Z" fill="white"/>
<path d="M337.479 128.534H304.978L305.796 79.0664H338.296L337.479 128.534Z" fill="white"/>
<path d="M405.328 54.6406H372.827V104.109H405.328V54.6406Z" fill="white"/>
<path d="M376.431 140.027H346.4L348.432 94.3184H378.463L376.431 140.027Z" fill="white"/>
<path d="M357.918 183.977C357.918 183.977 358.686 206.305 388.111 206.305C417.536 206.305 418.304 183.977 418.304 183.977H357.918Z" fill="#F0F0F0"/>
<path d="M400.856 318.75H443.514V215.558H400.856V318.75Z" fill="#F0F0F0"/>
<path d="M224.952 328.332H435.323V318.752H224.952V328.332Z" fill="#F0F0F0"/>
<path d="M400.856 215.559H216.762V318.751H400.856V215.559Z" fill="#F5F5F5"/>
<path d="M384.085 228.111H233.533V259.864H384.085V228.111Z" fill="#F0F0F0"/>
<path d="M384.085 268.91H233.533V300.663H384.085V268.91Z" fill="#F0F0F0"/>
<path d="M291.147 233.546H326.47C328.34 233.546 329.87 232.016 329.87 230.146C329.87 228.276 328.34 226.746 326.47 226.746H291.147C289.277 226.746 287.747 228.276 287.747 230.146C287.747 232.016 289.277 233.546 291.147 233.546Z" fill="#F5F5F5"/>
<path d="M291.147 274.343H326.47C328.34 274.343 329.87 272.813 329.87 270.943C329.87 269.073 328.34 267.543 326.47 267.543H291.147C289.277 267.543 287.747 269.073 287.747 270.943C287.747 272.814 289.277 274.343 291.147 274.343Z" fill="#F5F5F5"/>
<path d="M211.078 215.559L400.856 215.559V206.306L211.078 206.306V215.559Z" fill="#F0F0F0"/>
<path d="M449.475 206.305H400.856V215.558H449.475V206.305Z" fill="#E6E6E6"/>
<path d="M125.037 201.551H64.7627V328.329H125.037V201.551Z" fill="#F5F5F5"/>
<path d="M71.5498 321.058L71.5498 208.82H70.5028L70.5028 321.058H71.5498Z" fill="#E6E6E6"/>
<path d="M118.341 208.822H70.5039V210.148H118.341V208.822Z" fill="#E6E6E6"/>
<path d="M186.358 201.551H126.084V328.329H186.358V201.551Z" fill="#F5F5F5"/>
<path d="M186.358 328.33H192.367L192.367 201.552H186.358L186.358 328.33Z" fill="#E0E0E0"/>
<path d="M132.871 321.058L132.871 208.82H131.824L131.824 321.058H132.871Z" fill="#E6E6E6"/>
<path d="M126.084 328.329L126.084 202.611H125.037L125.037 328.329H126.084Z" fill="#E6E6E6"/>
<path d="M179.661 208.822H131.824V210.148H179.661V208.822Z" fill="#E6E6E6"/>
<path d="M121.92 209.484C122.543 209.484 123.048 209.989 123.048 210.612V228.98C123.048 229.603 122.543 230.108 121.92 230.108C121.297 230.108 120.792 229.603 120.792 228.98V210.612C120.791 209.99 121.296 209.484 121.92 209.484Z" fill="#E0E0E0"/>
<path d="M129.202 209.484C129.825 209.484 130.33 209.989 130.33 210.612V228.98C130.33 229.603 129.825 230.108 129.202 230.108C128.579 230.108 128.074 229.603 128.074 228.98V210.612C128.074 209.99 128.579 209.484 129.202 209.484Z" fill="#E0E0E0"/>
<path d="M250 373.492C357.082 373.492 443.889 368.422 443.889 362.169C443.889 355.915 357.082 350.846 250 350.846C142.918 350.846 56.1108 355.915 56.1108 362.169C56.1108 368.422 142.918 373.492 250 373.492Z" fill="#F5F5F5"/>
<path d="M304.138 219.066C307.599 235.35 289.036 242.238 281.332 235.077C273.627 227.916 273.993 205.917 263.601 205.353C278.613 193.728 300.769 203.209 304.138 219.066Z" fill="#263238"/>
<path d="M288.99 320.689C288.122 320.689 287.373 320.04 287.268 319.157C283.431 286.85 288.302 209.67 327.853 177.31C328.594 176.703 329.688 176.812 330.296 177.555C330.903 178.297 330.794 179.391 330.051 179.998C291.615 211.446 286.952 287.058 290.716 318.748C290.829 319.7 290.149 320.563 289.197 320.676C289.128 320.684 289.058 320.689 288.99 320.689Z" fill="#246532"/>
<path d="M274.905 362.171H303.079C305.027 362.171 306.714 360.821 307.143 358.921L318.896 306.797C319.483 304.192 317.503 301.715 314.832 301.715H263.152C260.482 301.715 258.501 304.192 259.088 306.797L270.841 358.921C271.27 360.821 272.957 362.171 274.905 362.171Z" fill="#246532"/>
<path opacity="0.6" d="M274.905 362.171H303.079C305.027 362.171 306.714 360.821 307.143 358.921L318.896 306.797C319.483 304.192 317.503 301.715 314.832 301.715H263.152C260.482 301.715 258.501 304.192 259.088 306.797L270.841 358.921C271.27 360.821 272.957 362.171 274.905 362.171Z" fill="white"/>
<path d="M301.039 222.31C300.908 222.31 300.776 222.295 300.642 222.264C299.709 222.046 299.129 221.113 299.347 220.179C299.405 219.932 305.002 195.343 296.406 180.893C295.916 180.069 296.186 179.004 297.01 178.514C297.834 178.024 298.899 178.294 299.389 179.118C308.705 194.777 302.976 219.908 302.727 220.97C302.541 221.769 301.827 222.31 301.039 222.31Z" fill="#246532"/>
<path d="M315.616 171.294C314.917 186.988 348.997 194.482 359.916 187.844C370.836 181.206 363.126 159.788 380.784 159.683C351.274 147.734 316.297 156.012 315.616 171.294Z" fill="#246532"/>
<path d="M307.372 173.585C313.851 186.376 296.041 193.923 286.847 188.957C277.653 183.991 274.074 166.173 263.308 166.825C276.624 155.83 301.064 161.13 307.372 173.585Z" fill="#246532"/>
<path d="M287.979 294.278C287.958 294.278 287.937 294.278 287.915 294.277C286.957 294.242 286.209 293.437 286.243 292.48C286.252 292.219 287.012 266.32 272.459 263.195C271.521 262.994 270.925 262.07 271.126 261.133C271.327 260.195 272.256 259.6 273.187 259.8C290.581 263.535 289.756 291.421 289.712 292.607C289.678 293.543 288.908 294.278 287.979 294.278Z" fill="#246532"/>
<path d="M283.1 257.237C287.617 265.612 273.763 275.827 266.91 274.203C260.057 272.58 257.923 259.586 249.68 262.719C260.217 250.916 278.701 249.082 283.1 257.237Z" fill="#246532"/>
<path d="M289.789 269.78C289.665 269.78 289.539 269.767 289.413 269.738C288.477 269.531 287.886 268.605 288.093 267.668C288.353 266.49 294.693 238.722 313.632 231.334C314.524 230.985 315.532 231.427 315.88 232.32C316.229 233.213 315.787 234.219 314.894 234.568C297.664 241.29 291.543 268.148 291.483 268.418C291.303 269.228 290.586 269.78 289.789 269.78Z" fill="#246532"/>
<path d="M310.595 222.255C296.94 229.396 306.155 244.651 316.788 245.287C327.421 245.924 342.094 233.197 350.257 239.225C346.917 223.448 323.891 215.302 310.595 222.255Z" fill="#246532"/>
<path d="M197.773 162.023C196.867 161.357 196.671 160.071 197.337 159.165L283.399 42.0877C284.065 41.1817 285.351 40.9847 286.258 41.6507C287.164 42.3167 287.361 43.6027 286.694 44.5097L200.632 161.587C199.965 162.493 198.679 162.69 197.773 162.023Z" fill="#246532"/>
<path d="M328.488 95.7426L325.285 100.098L326.108 100.703L329.311 96.3481L328.488 95.7426Z" fill="#246532"/>
<path d="M332.566 91.907L331.742 91.302C333.862 88.418 333.24 84.348 330.357 82.229L308.438 66.117L309.043 65.293L330.962 81.405C334.299 83.857 335.019 88.569 332.566 91.907Z" fill="#246532"/>
<path d="M295.955 129.026L199.968 58.4675C198.217 57.1805 197.841 54.7175 199.128 52.9665L227.355 14.5675C228.642 12.8165 231.105 12.4405 232.856 13.7275L328.843 84.2865C330.594 85.5735 330.97 88.0365 329.683 89.7875L301.456 128.186C300.168 129.937 297.706 130.313 295.955 129.026Z" fill="white"/>
<path d="M298.276 130.303C297.336 130.303 296.423 130.006 295.652 129.439L199.665 58.8796C198.708 58.1756 198.082 57.1426 197.903 55.9676C197.724 54.7936 198.012 53.6206 198.716 52.6636L226.943 14.2646C227.647 13.3076 228.68 12.6826 229.855 12.5026C231.027 12.3246 232.202 12.6116 233.159 13.3156L329.146 83.8736C330.103 84.5776 330.729 85.6106 330.908 86.7856C331.087 87.9596 330.799 89.1326 330.095 90.0896L301.868 128.489C301.164 129.446 300.131 130.072 298.956 130.251C298.729 130.286 298.502 130.303 298.276 130.303ZM296.258 128.615C296.995 129.158 297.901 129.381 298.802 129.241C299.706 129.103 300.502 128.621 301.044 127.885L329.271 89.4856C330.389 87.9646 330.062 85.8176 328.541 84.6996L232.554 14.1406C231.818 13.5996 230.913 13.3766 230.01 13.5146C229.106 13.6526 228.31 14.1346 227.768 14.8716L199.541 53.2706C198.999 54.0076 198.777 54.9116 198.915 55.8146C199.053 56.7186 199.535 57.5146 200.271 58.0566L296.258 128.615Z" fill="#246532"/>
<path d="M218.37 42.3584L223.085 45.3894C222.645 46.1934 222.433 46.8974 222.451 47.5004C222.483 48.4794 222.952 49.3024 223.858 49.9684C224.534 50.4654 225.172 50.6903 225.771 50.6413C226.37 50.5924 226.824 50.3604 227.131 49.9414C227.423 49.5444 227.51 49.0603 227.392 48.4903C227.274 47.9203 226.683 47.0294 225.619 45.8184C223.885 43.8244 222.859 42.1144 222.543 40.6894C222.219 39.2594 222.499 37.9454 223.38 36.7454C223.959 35.9574 224.735 35.3814 225.706 35.0164C226.678 34.6514 227.769 34.6053 228.981 34.8783C230.192 35.1513 231.597 35.8743 233.193 37.0483C235.152 38.4883 236.378 39.9503 236.871 41.4353C237.364 42.9193 237.124 44.5284 236.15 46.2614L231.492 43.2403C231.881 42.4633 232.001 41.7783 231.851 41.1843C231.702 40.5913 231.292 40.0494 230.623 39.5574C230.072 39.1524 229.571 38.9643 229.121 38.9923C228.67 39.0213 228.322 39.2024 228.076 39.5374C227.897 39.7814 227.85 40.0853 227.937 40.4503C228.012 40.8163 228.403 41.3944 229.111 42.1834C230.854 44.1514 232.005 45.6933 232.565 46.8083C233.125 47.9233 233.361 48.9694 233.271 49.9454C233.182 50.9214 232.83 51.8274 232.215 52.6644C231.492 53.6474 230.554 54.3533 229.401 54.7833C228.247 55.2133 227.025 55.2844 225.734 54.9954C224.443 54.7064 223.055 54.0163 221.57 52.9243C218.962 51.0073 217.526 49.1783 217.26 47.4363C216.996 45.6973 217.365 44.0034 218.37 42.3584Z" fill="#263238"/>
<path d="M235.967 51.315C237.807 48.812 239.936 47.376 242.356 47.007C244.775 46.638 247.229 47.368 249.718 49.197C252.27 51.073 253.732 53.203 254.106 55.588C254.479 57.973 253.759 60.399 251.945 62.867C250.628 64.659 249.246 65.907 247.8 66.61C246.354 67.313 244.826 67.565 243.218 67.365C241.609 67.165 239.954 66.44 238.253 65.189C236.524 63.918 235.296 62.591 234.567 61.207C233.838 59.823 233.561 58.277 233.733 56.567C233.905 54.857 234.65 53.106 235.967 51.315ZM240.689 54.818C239.551 56.366 239.021 57.689 239.1 58.788C239.178 59.887 239.712 60.801 240.702 61.528C241.72 62.276 242.751 62.524 243.796 62.272C244.841 62.02 245.993 61.036 247.254 59.321C248.315 57.878 248.799 56.609 248.706 55.516C248.613 54.422 248.069 53.509 247.071 52.776C246.116 52.074 245.1 51.849 244.025 52.099C242.949 52.35 241.837 53.256 240.689 54.818Z" fill="#263238"/>
<path d="M248.839 72.5673L260.109 57.2363L268.005 63.0403C269.469 64.1163 270.496 65.0643 271.085 65.8843C271.674 66.7043 271.956 67.6283 271.931 68.6563C271.905 69.6843 271.534 70.6863 270.816 71.6623C270.191 72.5133 269.47 73.1133 268.654 73.4633C267.838 73.8133 266.971 73.9473 266.055 73.8643C265.471 73.8113 264.768 73.6053 263.946 73.2483C264.372 73.8523 264.644 74.3423 264.764 74.7203C264.846 74.9743 264.9 75.4283 264.929 76.0833C264.957 76.7383 264.945 77.2183 264.893 77.5233L263.922 83.6523L258.569 79.7173L259.481 73.1703C259.606 72.3283 259.61 71.7243 259.492 71.3583C259.325 70.8703 259.025 70.4673 258.593 70.1493L258.175 69.8413L253.601 76.0633L248.839 72.5673ZM260.301 66.9463L262.298 68.4143C262.514 68.5733 262.983 68.8113 263.707 69.1273C264.067 69.2953 264.441 69.3233 264.829 69.2113C265.217 69.0993 265.535 68.8763 265.781 68.5413C266.145 68.0463 266.267 67.5513 266.148 67.0553C266.029 66.5593 265.537 65.9943 264.673 65.3583L262.592 63.8283L260.301 66.9463Z" fill="#263238"/>
<path d="M265.498 84.8134L276.768 69.4824L284.664 75.2864C286.128 76.3624 287.155 77.3104 287.744 78.1304C288.333 78.9504 288.615 79.8744 288.59 80.9024C288.565 81.9304 288.193 82.9324 287.475 83.9084C286.85 84.7594 286.129 85.3594 285.313 85.7094C284.497 86.0594 283.63 86.1934 282.714 86.1104C282.13 86.0574 281.427 85.8514 280.605 85.4944C281.031 86.0984 281.303 86.5884 281.423 86.9664C281.505 87.2204 281.559 87.6744 281.588 88.3294C281.616 88.9844 281.604 89.4644 281.552 89.7694L280.581 95.8984L275.228 91.9634L276.14 85.4164C276.265 84.5744 276.269 83.9704 276.151 83.6044C275.984 83.1164 275.684 82.7134 275.252 82.3954L274.834 82.0884L270.26 88.3104L265.498 84.8134ZM276.96 79.1924L278.957 80.6604C279.173 80.8194 279.642 81.0574 280.366 81.3734C280.726 81.5414 281.1 81.5694 281.488 81.4574C281.876 81.3454 282.193 81.1224 282.439 80.7874C282.803 80.2924 282.925 79.7974 282.806 79.3014C282.687 78.8054 282.195 78.2404 281.331 77.6044L279.25 76.0744L276.96 79.1924Z" fill="#263238"/>
<path d="M290.896 79.8691L296.158 83.7371L295.445 91.1801L302.342 88.2831L307.576 92.1311L295.066 96.6591L290.346 103.08L285.598 99.5901L290.318 93.1691L290.896 79.8691Z" fill="#263238"/>
<path d="M308.831 93.0527L313.38 96.3967L310.812 99.8897L304.775 106.261L301.962 104.193L306.263 96.5457L308.831 93.0527ZM300.478 104.745L304.724 107.866L301.964 111.62L297.718 108.499L300.478 104.745Z" fill="#263238"/>
<path d="M223.451 92.2726C223.839 93.1136 224.102 93.7156 224.394 94.4116C224.68 95.0866 224.932 95.7606 225.191 96.4326C225.708 97.7746 226.147 99.1326 226.589 100.49C227.433 103.214 228.159 105.976 228.715 108.79C229.009 110.191 229.241 111.614 229.47 113.035C229.651 114.471 229.848 115.898 229.957 117.353C230.258 120.239 230.243 123.2 230.149 126.152L230.133 126.657C230.123 126.977 230.071 127.309 229.994 127.606C229.349 130.044 228.406 131.689 227.453 133.143C226.491 134.586 225.493 135.79 224.483 136.917C222.467 139.171 220.334 141.033 218.193 142.814C216.028 144.565 213.822 146.18 211.559 147.689C209.277 149.195 207.018 150.594 204.539 151.896C202.665 152.88 200.349 152.158 199.366 150.285C198.592 148.812 198.873 147.064 199.94 145.907L200.023 145.819L205.203 140.219C206.911 138.343 208.592 136.472 210.163 134.58C211.751 132.714 213.224 130.789 214.458 128.957C215.073 128.044 215.614 127.133 215.98 126.329C216.348 125.541 216.565 124.81 216.504 124.699L216.349 126.153C216.154 123.832 215.908 121.514 215.485 119.171C215.066 116.836 214.567 114.494 213.955 112.16C213.334 109.832 212.676 107.498 211.908 105.199C211.532 104.048 211.126 102.907 210.727 101.775L210.109 100.101L209.531 98.5876L209.381 98.1946C207.877 94.2536 209.852 89.8396 213.793 88.3356C217.563 86.8946 221.778 88.6656 223.451 92.2726Z" fill="#B55B52"/>
<path d="M173.742 35.1297C167.267 41.3367 168.079 71.6417 170.765 100.486C173.45 129.33 197.852 124.554 206.917 112.048C218.963 95.4287 205.422 70.5517 207.36 60.7567C209.469 50.0997 211.051 38.0507 198.272 30.7487C184.371 22.8047 172.336 28.8007 173.742 35.1297Z" fill="#263238"/>
<path d="M169.185 103.225C169.167 103.225 169.148 103.224 169.13 103.222C168.829 103.192 168.609 102.923 168.64 102.622C169.447 94.6107 168.71 84.2117 167.998 74.1557C166.659 55.2487 165.394 37.3907 173.883 34.6097C174.17 34.5147 174.48 34.6727 174.574 34.9597C174.668 35.2467 174.511 35.5567 174.224 35.6507C166.547 38.1667 167.84 56.4227 169.091 74.0787C169.806 84.1817 170.547 94.6277 169.73 102.732C169.701 103.014 169.462 103.225 169.185 103.225Z" fill="#263238"/>
<path d="M181.156 96.7625L178.69 103.774C177.862 106.138 177.078 108.512 176.305 110.869C175.563 113.231 174.836 115.588 174.196 117.916C173.592 120.243 173.018 122.543 172.633 124.742L172.654 123.601C172.605 124.691 172.72 125.922 173.134 127.265C173.358 127.929 173.615 128.627 173.928 129.338C174.252 130.047 174.645 130.756 175.066 131.479C175.916 132.925 176.955 134.371 178.104 135.793C178.681 136.501 179.277 137.216 179.905 137.903L181.736 139.901L182.135 140.337C183.553 141.884 183.448 144.287 181.901 145.705C180.774 146.738 179.19 146.961 177.866 146.41C177.208 146.135 176.732 145.945 176.186 145.696C175.663 145.452 175.151 145.199 174.639 144.937C173.63 144.399 172.634 143.827 171.667 143.194C169.729 141.932 167.883 140.458 166.143 138.737C164.435 136.994 162.804 135.002 161.506 132.623C160.863 131.429 160.294 130.15 159.825 128.793C159.363 127.427 159.067 125.975 158.879 124.487C158.858 124.315 158.852 124.145 158.861 123.978L158.9 123.345C159.267 117.381 160.378 111.956 161.761 106.649C162.44 103.996 163.244 101.402 164.084 98.8235C164.953 96.2275 165.833 93.7585 166.945 91.1225C168.585 87.2325 173.068 85.4075 176.958 87.0475C180.697 88.6235 182.528 92.8265 181.208 96.6055L181.156 96.7625Z" fill="#B55B52"/>
<path d="M177.967 81.7168C169.992 83.2198 168.305 86.4798 162.432 98.5888C164.204 106.557 175.342 113.561 175.342 113.561C175.342 113.561 191.117 92.0168 177.967 81.7168Z" fill="#246532"/>
<path d="M165.324 96.8059C165.193 101.055 165.61 106.192 166.564 116.306C167.208 124.873 165.074 141.159 167.772 142.351H210.987C211.858 130.083 211.537 121.634 219.297 94.2429C221.096 87.8919 217.084 81.7929 210.677 81.1429C208.965 80.9689 207.149 80.8239 205.285 80.7339C198.039 80.3839 192.098 80.1509 185.662 80.7349C183.529 80.9279 181.319 81.1969 179.205 81.4899C171.578 82.5499 165.558 89.1919 165.324 96.8059Z" fill="#246532"/>
<path d="M185.012 91.2685C184.785 92.0725 184.314 92.6435 183.959 92.5435C183.604 92.4435 183.5 91.7105 183.727 90.9055C183.954 90.1015 184.425 89.5305 184.78 89.6305C185.135 89.7305 185.239 90.4635 185.012 91.2685Z" fill="white"/>
<path d="M183.416 97.9437C183.314 98.7727 182.934 99.4087 182.568 99.3637C182.202 99.3187 181.988 98.6097 182.091 97.7797C182.194 96.9507 182.573 96.3147 182.939 96.3597C183.305 96.4057 183.518 97.1147 183.416 97.9437Z" fill="white"/>
<path d="M201.132 59.3184C200.941 65.8564 200.102 76.5224 204.206 80.7354C204.206 80.7354 198.226 79.8374 185.528 87.6904C181.851 82.4174 184.583 80.7364 184.583 80.7364C188.198 80.0754 191.362 76.3894 189.383 71.8184L201.132 59.3184Z" fill="#B55B52"/>
<path d="M188.197 86.1101C192.379 86.7051 193.689 93.0221 193.689 93.0221C193.689 93.0221 203.734 85.9171 206.917 80.9071C205.426 80.1261 203.249 78.5781 203.249 78.5781C203.249 78.5781 190.639 83.6961 188.197 86.1101Z" fill="white"/>
<path d="M184.222 85.4368C184.222 85.4368 180.902 86.1548 179.236 90.7738C178.279 81.5648 182.645 80.7178 182.645 80.7178C182.645 80.7178 183.957 79.7818 186.426 80.1708C183.11 81.9208 184.222 85.4368 184.222 85.4368Z" fill="white"/>
<path opacity="0.2" d="M193.784 67.8867L192.132 68.8927L189.383 71.8167C190.15 73.5697 190.15 75.2017 189.646 76.5707C192.779 75.3547 195.944 72.9017 196.777 70.2507C196.783 70.2317 196.789 70.2127 196.794 70.1937C197.335 68.4187 195.37 66.9217 193.784 67.8867Z" fill="black"/>
<path d="M199.027 44.0093C202.046 53.9333 203.529 58.0603 200.635 65.0863C196.281 75.6563 183.822 77.7703 177.994 69.0873C172.748 61.2723 168.692 46.3553 176.447 38.5103C184.088 30.7813 196.008 34.0843 199.027 44.0093Z" fill="#B55B52"/>
<path d="M185.496 52.9875C185.785 53.8095 185.608 54.6535 185.099 54.8735C184.591 55.0925 183.944 54.6044 183.654 53.7824C183.365 52.9604 183.542 52.1164 184.051 51.8964C184.56 51.6764 185.207 52.1655 185.496 52.9875Z" fill="#263238"/>
<path d="M175.98 57.2625C176.269 58.0845 176.092 58.9285 175.583 59.1485C175.075 59.3675 174.428 58.8795 174.138 58.0575C173.848 57.2355 174.026 56.3915 174.535 56.1715C175.044 55.9525 175.691 56.4405 175.98 57.2625Z" fill="#263238"/>
<path d="M174.776 56.1191L172.707 56.3561C172.707 56.3561 174.209 57.4851 174.776 56.1191Z" fill="#263238"/>
<path d="M178.779 56.7949C178.779 56.7949 178.705 60.9029 177.853 63.2379C179.237 63.8069 180.82 62.5909 180.82 62.5909L178.779 56.7949Z" fill="#A02724"/>
<path d="M185.324 62.7105C185.767 62.6235 186.243 62.5705 186.751 62.5625C186.888 62.5605 186.993 62.6725 186.986 62.8145C186.979 62.9545 186.865 63.0705 186.723 63.0735C183.008 63.1295 181.127 65.8275 181.108 65.8545C181.027 65.9745 180.87 66.0105 180.76 65.9345C180.649 65.8595 180.624 65.7015 180.706 65.5825C180.779 65.4775 182.292 63.3045 185.324 62.7105Z" fill="#263238"/>
<path d="M204.149 50.508C204.212 52.844 203.306 54.788 202.112 55.899C200.315 57.571 198.126 55.656 197.545 52.887C197.021 50.395 197.325 46.522 199.649 45.952C201.937 45.391 204.077 47.837 204.149 50.508Z" fill="#FFB573"/>
<path d="M190.983 34.2361C183.483 42.2911 193.539 61.3721 192.514 75.0961C191.258 91.9151 201.566 94.3781 208.058 80.9101C203.231 68.1721 208.217 49.0901 206.917 42.4031C205.427 34.7361 196.328 30.4901 190.983 34.2361Z" fill="#263238"/>
<path d="M181.287 46.2795C181.418 46.2625 181.553 46.2985 181.657 46.3905C183.277 47.8325 185.059 47.2795 185.079 47.2735C185.343 47.1905 185.615 47.3355 185.681 47.6055C185.747 47.8745 185.584 48.1625 185.316 48.2495C185.223 48.2785 182.987 48.9755 180.977 47.1845C180.777 47.0065 180.766 46.6835 180.954 46.4645C181.044 46.3585 181.165 46.2965 181.287 46.2795Z" fill="#263238"/>
<path d="M171.417 54.5051C171.304 54.5601 171.174 54.5721 171.051 54.5281C170.799 54.4371 170.675 54.1431 170.774 53.8721C171.772 51.1571 173.989 50.5281 174.084 50.5031C174.35 50.4311 174.609 50.5971 174.664 50.8741C174.718 51.1501 174.547 51.4321 174.282 51.5051C174.195 51.5281 172.481 52.0421 171.688 54.2011C171.637 54.3411 171.537 54.4471 171.417 54.5051Z" fill="#263238"/>
<path d="M184.292 51.8457L182.223 52.0827C182.223 52.0827 183.725 53.2117 184.292 51.8457Z" fill="#263238"/>
<path d="M211.078 81.1973C218.113 82.2843 220.934 84.4243 226.682 98.5623C224.073 103.835 212.385 117.183 212.385 117.183C212.385 117.183 202.28 91.4933 211.078 81.1973Z" fill="#246532"/>
<path d="M218.321 354.926C222.496 348.256 222.692 346.418 225.407 342.914C227.727 339.906 227.74 340.139 230.59 337.562C232.478 335.855 230.915 333.403 228.857 332.366C227.254 331.558 225.501 330.848 223.557 329.787L216.136 336.515C217.427 340.342 216.712 348.309 213.889 353.603C211.88 357.393 216.645 357.593 218.321 354.926Z" fill="#263238"/>
<path d="M167.771 142.354C167.771 142.354 166.732 196.261 165.544 233.046C165.306 240.425 166.908 247.732 170.203 254.339C183.216 280.43 215.595 337.16 215.595 337.16C216.899 338.302 223.099 331.625 223.557 329.789C223.557 329.789 205.939 258.097 190.319 242.032C211.076 184.587 205.437 142.355 205.437 142.355H167.771V142.354Z" fill="#263238"/>
<g opacity="0.2">
<path d="M205.616 143.957L185.253 145.392C185.253 145.392 188.572 204.607 191.814 237.807C208.595 188.965 206.36 151.92 205.616 143.957Z" fill="black"/>
<path d="M192.504 244.598C194.322 261.62 196.195 283.779 197.05 304.24C203.732 316.223 209.723 326.815 212.988 332.566C214.576 325.435 216.285 316.924 217.643 307.899C211.618 287.043 201.87 257.031 192.504 244.598Z" fill="black"/>
</g>
<path d="M211.616 334.36C212.348 335.28 213.646 336.925 214.562 338.181C214.865 338.596 215.435 338.683 215.856 338.388C219.015 336.184 223.198 331.658 224.555 330.153C224.824 329.855 224.869 329.421 224.672 329.071L222.553 325.305C222.264 324.791 221.578 324.67 221.13 325.052L211.745 333.071C211.361 333.4 211.302 333.966 211.616 334.36Z" fill="#246532"/>
<path opacity="0.3" d="M211.616 334.36C212.348 335.28 213.646 336.925 214.562 338.181C214.865 338.596 215.435 338.683 215.856 338.388C219.015 336.184 223.198 331.658 224.555 330.153C224.824 329.855 224.869 329.421 224.672 329.071L222.553 325.305C222.264 324.791 221.578 324.67 221.13 325.052L211.745 333.071C211.361 333.4 211.302 333.966 211.616 334.36Z" fill="white"/>
<path d="M191.404 362.16C199.41 362.16 202.464 362.036 206.976 361.885C210.84 361.747 211.718 362.229 214.82 362.16C217.411 362.105 217.54 359.629 217.001 356.781C216.732 355.351 216.272 353.603 215.932 351.293H203.771C201.834 354.443 194.71 356.809 190.143 357.415C185.785 357.992 188.212 362.16 191.404 362.16Z" fill="#263238"/>
<path d="M179.065 142.354C179.065 142.354 191.644 211.584 196.251 242.962C201.089 275.916 207.051 329.403 203.772 351.295C205.548 352.384 212.134 352.45 215.933 351.295C215.933 351.295 232.678 279.429 219.096 244.42C228.231 167.304 214.722 163.288 210.987 142.355H179.065V142.354Z" fill="#263238"/>
<path d="M203.268 346.735C203.132 347.839 202.857 349.763 202.437 351.231C202.285 351.761 202.598 352.252 203.123 352.337C207.509 353.05 214.045 352.018 216.122 351.649C216.52 351.579 216.845 351.268 216.943 350.875L217.989 346.669C218.132 346.094 217.728 345.576 217.145 345.588L204.267 345.836C203.767 345.845 203.329 346.237 203.268 346.735Z" fill="#246532"/>
<path opacity="0.3" d="M203.268 346.735C203.132 347.839 202.857 349.763 202.437 351.231C202.285 351.761 202.598 352.252 203.123 352.337C207.509 353.05 214.045 352.018 216.122 351.649C216.52 351.579 216.845 351.268 216.943 350.875L217.989 346.669C218.132 346.094 217.728 345.576 217.145 345.588L204.267 345.836C203.767 345.845 203.329 346.237 203.268 346.735Z" fill="white"/>
<path d="M190.843 32.7108C199.352 45.0338 175.817 40.6068 170.72 52.1838C170.74 40.6068 171.7 31.6608 190.843 32.7108Z" fill="#263238"/>
<path d="M210.987 142.353C198.576 144.97 172.708 150.994 167.772 142.353C170.964 140.147 203.818 140.543 210.987 142.353Z" fill="#246532"/>
<path d="M181.338 149.131C180.516 149.131 179.749 149.113 179.051 149.076C170.975 148.649 168.66 146.17 168.566 146.065C168.465 145.953 168.475 145.781 168.586 145.68C168.698 145.579 168.872 145.588 168.972 145.698C168.994 145.722 171.274 148.117 179.08 148.53C186.981 148.948 204.677 146.758 210.083 144.235C210.22 144.171 210.383 144.23 210.447 144.367C210.511 144.504 210.452 144.667 210.315 144.731C205.217 147.109 190.114 149.131 181.338 149.131Z" fill="white"/>
<path d="M178.382 168.674C178.171 168.674 177.92 168.605 177.635 168.405C173.599 165.586 177.431 151.792 179.564 148.033C179.623 147.928 179.744 147.874 179.861 147.901C179.979 147.927 180.065 148.027 180.075 148.147C180.23 150.075 181.511 167.024 178.858 168.546C178.736 168.616 178.576 168.674 178.382 168.674ZM179.605 149.166C177.497 153.749 174.618 165.629 177.949 167.956C178.288 168.192 178.475 168.134 178.586 168.07C180.292 167.092 180.144 156.581 179.605 149.166Z" fill="white"/>
<path d="M182.613 165.403C182.439 165.403 182.236 165.366 182 165.273C177.378 163.451 178.379 152.1 179.54 148.093C179.573 147.979 179.676 147.899 179.795 147.895C179.89 147.893 180.021 147.965 180.061 148.077C180.611 149.613 185.374 163.137 183.325 165.123C183.176 165.266 182.948 165.403 182.613 165.403ZM179.844 149.108C178.773 153.756 178.36 163.249 182.201 164.763C182.702 164.961 182.884 164.786 182.944 164.729C184.241 163.472 181.895 155.005 179.844 149.108Z" fill="white"/>
<path d="M175.391 158.704C175.259 158.704 175.142 158.608 175.121 158.472C174.636 155.402 177.601 148.589 179.719 147.908C179.862 147.862 180.017 147.94 180.064 148.085C180.11 148.229 180.031 148.383 179.887 148.43C178.031 149.028 175.227 155.635 175.662 158.388C175.685 158.537 175.583 158.678 175.434 158.701C175.42 158.703 175.405 158.704 175.391 158.704Z" fill="white"/>
</g>
<defs>
<clipPath id="clip0_194_2872">
<rect width="500" height="373" fill="white" transform="translate(0 0.931641)"/>
</clipPath>
</defs>
</svg>
