<?xml version="1.0" standalone="no"?>
<!DOCTYPE svg PUBLIC "-//W3C//DTD SVG 20010904//EN"
 "http://www.w3.org/TR/2001/REC-SVG-20010904/DTD/svg10.dtd">
<svg version="1.0" xmlns="http://www.w3.org/2000/svg"
 width="512.000000pt" height="512.000000pt" viewBox="0 0 512.000000 512.000000"
 preserveAspectRatio="xMidYMid meet">

<g transform="translate(0.000000,512.000000) scale(0.100000,-0.100000)"
fill="white" stroke="none">
<path d="M1481 5109 c-81 -25 -150 -86 -188 -167 -20 -43 -26 -75 -31 -158
l-5 -104 -236 0 c-182 0 -251 -4 -296 -16 -179 -46 -316 -178 -366 -351 -18
-65 -19 -109 -19 -971 l0 -904 29 -29 c51 -51 137 -33 160 33 7 21 11 226 11
619 l0 589 1811 0 c1314 0 1816 3 1832 11 75 39 75 139 0 178 -16 8 -518 11
-1832 11 l-1811 0 0 190 c0 165 3 196 20 243 27 73 79 130 148 164 l57 28 248
3 247 3 0 -63 c1 -142 42 -242 126 -301 63 -44 98 -55 179 -56 86 -1 154 27
214 89 57 59 81 129 81 240 l0 90 840 0 840 0 0 -62 c1 -142 43 -242 126 -301
63 -44 98 -55 179 -56 86 -1 154 27 214 89 57 59 81 129 81 241 l0 90 278 -3
c259 -3 280 -4 323 -24 60 -28 125 -93 153 -153 l21 -46 3 -1955 2 -1955 -22
-45 c-64 -127 -241 -132 -312 -10 -18 31 -22 57 -26 212 l-5 178 -28 27 -27
28 -593 3 c-325 2 -607 0 -626 -3 -91 -17 -112 -138 -31 -180 25 -13 107 -15
570 -15 l540 0 0 -102 c0 -91 12 -164 35 -220 7 -17 -93 -18 -2021 -18 -1947
0 -2031 1 -2069 19 -80 37 -105 90 -105 226 l0 95 1135 0 1135 0 32 29 c28 25
33 36 32 71 -1 31 -8 49 -28 69 l-26 26 -517 5 c-461 4 -514 7 -498 20 41 33
140 169 172 235 67 140 78 192 77 370 0 146 -2 167 -27 240 -111 329 -393 549
-732 572 -435 28 -822 -300 -863 -734 -22 -230 47 -447 199 -623 l68 -79 -149
-3 c-148 -3 -150 -3 -177 -31 l-28 -27 0 -188 c0 -153 3 -196 18 -237 24 -69
82 -143 147 -187 107 -73 -72 -68 2390 -68 2462 0 2283 -5 2390 68 62 42 122
116 147 182 17 42 18 161 21 2010 1 1355 -1 1981 -8 2016 -29 140 -136 281
-258 343 -110 56 -149 61 -443 61 l-267 0 -4 113 c-2 94 -7 119 -26 157 -57
109 -148 164 -272 165 -86 0 -145 -24 -207 -84 -60 -60 -84 -127 -91 -247 l-5
-104 -838 0 -837 0 -4 113 c-3 126 -19 171 -85 239 -66 68 -203 104 -292 77z
m122 -200 c56 -29 57 -32 57 -321 l0 -266 -26 -31 c-51 -61 -152 -31 -168 50
-3 18 -6 133 -6 258 0 195 2 231 18 261 26 53 78 73 125 49z m2280 0 c56 -29
57 -32 57 -321 l0 -266 -26 -31 c-51 -61 -152 -31 -168 50 -3 18 -6 133 -6
258 0 195 2 231 18 261 26 53 78 73 125 49z m-2848 -2944 c223 -47 411 -229
469 -452 21 -78 21 -228 0 -306 -98 -378 -522 -575 -869 -403 -217 108 -346
316 -346 556 0 395 359 686 746 605z"/>
<path d="M971 1456 l-176 -174 -67 63 c-72 69 -110 84 -155 63 -37 -17 -66
-77 -57 -114 8 -32 184 -218 226 -240 15 -8 42 -14 59 -14 29 0 57 24 256 222
173 172 224 229 229 254 11 60 -36 113 -100 114 -37 0 -47 -8 -215 -174z"/>
<path d="M4575 3841 c-60 -25 -79 -110 -35 -156 61 -65 170 -23 170 65 0 70
-70 117 -135 91z"/>
<path d="M1232 3104 c-73 -19 -134 -57 -186 -115 -64 -71 -90 -143 -90 -249 0
-108 26 -179 94 -253 147 -161 391 -166 545 -12 207 207 112 556 -173 630 -69
18 -121 18 -190 -1z m176 -205 c87 -43 124 -147 82 -234 -44 -92 -151 -129
-240 -83 -132 68 -132 249 0 316 55 28 101 28 158 1z"/>
<path d="M2177 3110 c-349 -88 -395 -559 -69 -713 59 -28 77 -32 152 -31 63 0
100 6 143 23 81 32 166 113 203 193 26 56 29 74 29 158 0 84 -3 102 -29 158
-38 81 -123 162 -203 192 -66 25 -170 34 -226 20z m159 -209 c23 -10 54 -36
70 -57 25 -33 29 -46 29 -104 0 -58 -4 -71 -29 -104 -54 -71 -144 -93 -221
-56 -132 64 -133 254 -1 320 51 25 99 25 152 1z"/>
<path d="M3105 3107 c-130 -34 -233 -132 -271 -256 -29 -96 -13 -226 39 -307
131 -209 417 -242 589 -70 185 184 130 497 -107 607 -73 34 -176 45 -250 26z
m152 -198 c66 -25 115 -96 115 -169 0 -56 -19 -97 -66 -138 -63 -55 -154 -55
-220 0 -88 73 -89 205 -2 274 54 43 116 55 173 33z"/>
<path d="M4032 3104 c-73 -19 -134 -57 -186 -115 -64 -71 -90 -143 -90 -249 0
-108 26 -179 94 -253 147 -161 391 -166 545 -12 207 207 112 556 -173 630 -69
18 -121 18 -190 -1z m176 -205 c87 -43 124 -147 82 -234 -44 -92 -151 -129
-240 -83 -132 68 -132 249 0 316 55 28 101 28 158 1z"/>
<path d="M2177 2070 c-349 -88 -395 -559 -69 -713 59 -28 77 -32 152 -31 63 0
100 6 143 23 81 32 166 113 203 193 26 56 29 74 29 158 0 84 -3 102 -29 158
-38 81 -123 162 -203 192 -66 25 -170 34 -226 20z m159 -209 c23 -10 54 -36
70 -57 25 -33 29 -46 29 -104 0 -58 -4 -71 -29 -104 -54 -71 -144 -93 -221
-56 -132 64 -133 254 -1 320 51 25 99 25 152 1z"/>
<path d="M3105 2067 c-130 -34 -233 -132 -271 -256 -29 -96 -13 -226 39 -307
131 -209 417 -242 589 -70 185 184 130 497 -107 607 -73 34 -176 45 -250 26z
m152 -198 c66 -25 115 -96 115 -169 0 -56 -19 -97 -66 -138 -63 -55 -154 -55
-220 0 -88 73 -89 205 -2 274 54 43 116 55 173 33z"/>
<path d="M4032 2064 c-73 -19 -134 -57 -186 -115 -64 -71 -90 -143 -90 -249 0
-108 26 -179 94 -253 147 -161 391 -166 545 -12 207 207 112 556 -173 630 -69
18 -121 18 -190 -1z m176 -205 c87 -43 124 -147 82 -234 -44 -92 -151 -129
-240 -83 -132 68 -132 249 0 316 55 28 101 28 158 1z"/>
<path d="M2880 729 c-93 -37 -74 -172 25 -186 70 -9 122 54 103 124 -14 52
-77 82 -128 62z"/>
</g>
</svg>
