<svg width="199" height="120" viewBox="0 0 199 120" fill="none" xmlns="http://www.w3.org/2000/svg">
<rect x="1.09985" y="0.5" width="197.4" height="119" rx="9.5" stroke="#D6D6D6"/>
<path d="M136.612 38.0833C135.779 38.625 134.592 39.125 134.092 39.6875C133.904 39.875 133.8 40.0833 133.842 40.2917V42.4375L133.217 44.5417L132.592 46.625L131.904 48.9167L130.487 53.6042L129.112 58.2292L128.071 61.7083C128.071 62.25 128.05 62.7917 128.008 63.3125C127.862 65.3125 127.446 67.2292 126.779 69.0208C126.383 70.125 125.904 71.1875 125.321 72.1875C125.112 72.5833 124.862 72.9792 124.612 73.3542C123.779 74.6667 122.779 75.875 121.675 76.9375C120.821 77.7917 119.883 78.5833 118.862 79.25C118.862 79.25 118.862 79.25 118.842 79.25C118.675 79.3958 118.487 79.5208 118.279 79.625C117.633 80.0625 116.946 80.4375 116.237 80.7708C115.758 81.0208 115.279 81.2292 114.779 81.4167C114.675 81.4792 114.55 81.5208 114.446 81.5625C113.258 82.125 111.883 82.5 110.508 82.6875C110.425 82.7083 110.362 82.7083 110.279 82.7292C109.446 82.875 108.633 83 107.8 83.0625C107.425 83.1042 107.029 83.125 106.654 83.125L105.175 83.0417L98.0499 82.6667C98.0499 82.6458 98.0291 82.6667 98.0291 82.6667L94.4457 82.4792C94.1749 82.4792 93.8832 82.4792 93.6124 82.4583C92.4874 82.4167 91.4041 82.2917 90.3207 82.0625C90.2999 82.0625 90.2999 82.0625 90.2999 82.0625C88.3207 81.6875 86.4249 81.0208 84.6541 80.125C83.6749 79.625 82.7166 79.0625 81.8207 78.4167C81.4457 78.1458 81.0916 77.8542 80.7374 77.5417C79.7374 76.7083 78.8416 75.8125 78.0082 74.8958C77.8832 74.7708 77.7791 74.6458 77.6749 74.5208C77.5499 74.3958 77.4249 74.25 77.3207 74.125C76.5291 73.125 75.8624 72.1042 75.3207 71.0208C74.8207 70.0625 74.4249 69.0417 74.1124 67.9167C73.9874 67.5208 73.8832 67.1458 73.7999 66.7292C73.7791 66.7083 73.7582 66.6667 73.7582 66.625C73.5499 65.7708 73.3624 64.875 73.2582 63.9792C73.1332 63.2917 73.0707 62.6042 73.0707 61.8958C73.0291 61.625 73.0291 61.3333 73.0291 61.0625L77.0082 54.9167L80.9041 48.9167L82.6749 46.1875L84.2791 43.7292L84.8207 42.875V40.7292C84.8624 40.25 84.8832 39.75 84.8624 39.2917C84.8416 37.8333 84.5499 36.4167 84.0707 35.0625C83.6124 33.625 82.9666 32.2708 82.2999 31.0208C81.5082 29.5833 80.6749 28.2917 79.9874 27.125C78.9666 25.4167 78.2582 24.0208 78.4457 23.0417C79.9457 22.6875 81.5291 22.5 83.1332 22.5H116.467C125.175 22.5 132.675 27.9167 135.779 35.5417C136.112 36.3542 136.404 37.2083 136.612 38.0833Z" fill="#304FFE"/>
<path d="M137.3 43.3333V43.8958L134.425 45.5625L132.591 46.625L130.571 47.7917L126.529 50.1458L122.571 52.4375L118.529 54.7708L116.925 55.7083C116.925 56.7083 116.675 57.625 116.216 58.4583C115.571 59.6667 114.487 60.6667 113.112 61.5208C111.716 62.375 110.008 63.0625 108.091 63.5625C108.091 63.5625 108.091 63.5417 108.071 63.5625C100.654 65.4792 90.5289 64.6042 85.6122 60.9375C84.2372 59.9167 83.2789 58.6667 82.8622 57.2292C82.7372 56.75 82.6747 56.2292 82.6747 55.7083V40.7292C82.6956 40.4167 82.4872 40.1042 82.1122 39.7917C80.9872 38.8958 78.3414 38.0417 75.3831 37.1875C73.0706 36.5417 70.5914 35.8958 68.5081 35.2708C66.8622 34.7708 65.4664 34.2708 64.6331 33.7917C65.0081 33.0625 65.4456 32.3333 65.9039 31.6458C68.8206 27.375 73.2789 24.2292 78.4456 23.0417C79.9456 22.6875 81.5289 22.5 83.1331 22.5H105.633C116.821 24.4583 127.133 29.0208 135.779 35.5417C136.112 36.3542 136.404 37.2083 136.612 38.0833C136.987 39.4583 137.216 40.875 137.279 42.3542C137.3 42.6667 137.3 43 137.3 43.3333Z" fill="#4928F4"/>
<path d="M137.3 43.3333V52.5208L136.842 53.9375L135.279 58.7917L133.654 63.7917L132.8 66.4583L132.008 68.9375L131.237 71.2917L130.487 73.625L130.092 74.8542L129.571 76.4792C129.571 78.0625 129.529 79.4583 129.425 80.6458C129.404 80.7708 129.383 80.8958 129.383 81.0208C129.258 82.125 129.092 83.0625 128.821 83.8542C128.8 83.9792 128.758 84.1042 128.717 84.2083C128.175 85.7083 127.362 86.6667 126.154 87.2917C125.862 87.4583 125.529 87.5833 125.175 87.7083C124.071 88.0833 122.675 88.2708 120.967 88.375C119.717 88.4583 118.279 88.4792 116.654 88.4792H115.217L112.737 88.375L112.3 88.3542L107.779 88.1667L103.196 87.9792L88.0915 87.3542L84.1749 87.1875H83.6332C82.0082 87.1667 80.6124 87.0625 79.4041 86.8958C77.6541 86.625 76.2999 86.1667 75.2791 85.4792C73.8207 84.5417 72.9666 83.1667 72.4666 81.25C72.3416 80.7917 72.2374 80.3125 72.1749 79.7917C71.9666 78.5833 71.8624 77.1875 71.7999 75.625C71.7999 75.3125 71.7999 75 71.7791 74.6667C71.7582 74.6458 71.7791 74.6458 71.7791 74.6458V73.4375C71.7582 72.8333 71.7582 72.2083 71.7582 71.5625L71.8624 68.2083L71.9249 65.8125L72.0082 63.0208V62.625L72.1541 57.5L72.2999 52.375L72.4457 47.5625L72.5707 42.8333L72.6124 41.5833C72.6124 40.9375 70.4249 40.5625 67.9874 40.25C66.0499 40 63.9249 39.7708 62.6541 39.4792C62.7582 39 62.8624 38.5208 62.9874 38.0625C63.3624 36.5625 63.9249 35.1458 64.6332 33.7917C65.0082 33.0625 65.4457 32.3333 65.9041 31.6458C70.4041 29.6667 75.0916 28.125 79.9874 27.125C84.2791 26.2292 88.7582 25.75 93.3832 25.75C108.717 25.75 122.883 30.9375 134.092 39.6875C135.175 40.5208 136.237 41.4167 137.279 42.3542C137.3 42.6667 137.3 43 137.3 43.3333Z" fill="#6200EA"/>
<path d="M137.3 48.2695V57.7279L136.154 59.9362L133.966 64.207L132.8 66.457L131.737 68.5195L131.279 69.4154C131.279 70.0612 131.279 70.6862 131.237 71.2904C131.237 72.1862 131.196 73.0404 131.133 73.832C131.05 74.7695 130.925 75.6237 130.8 76.4154C130.487 78.0612 130.05 79.4779 129.425 80.6445C129.341 80.7904 129.258 80.9362 129.175 81.0612C128.946 81.4362 128.675 81.7904 128.383 82.1237C128.008 82.582 127.591 82.9779 127.112 83.3112C126.404 83.8529 125.571 84.2904 124.612 84.6237C123.425 85.0612 122.05 85.3529 120.425 85.5195C119.362 85.6237 118.196 85.6862 116.925 85.6862L116.05 85.7279L111.716 85.9779H111.696L107.091 86.2487L102.404 86.5195L95.9456 86.8945L88.0915 87.3529L86.9456 87.4154C85.8831 87.4154 84.8831 87.3529 83.9248 87.2279C83.8206 87.207 83.7373 87.1862 83.6331 87.1862C82.2165 86.957 80.9248 86.582 79.7581 86.0612C78.3415 85.4362 77.1123 84.6029 76.0706 83.6029C75.154 82.707 74.3623 81.6862 73.7165 80.5404C73.5706 80.2695 73.4248 80.0195 73.2998 79.7279C72.6748 78.4987 72.1748 77.1237 71.7998 75.6237C71.7373 75.3737 71.6748 75.1029 71.6331 74.832C71.5081 74.3529 71.404 73.8529 71.3415 73.332C71.1123 71.9987 70.9873 70.582 70.9248 69.1029V69.082C70.904 68.4779 70.8831 67.8945 70.8831 67.2695L69.8623 64.832L69.7165 64.457L69.5915 64.1445L68.029 60.4154L67.779 59.8112L66.279 56.207L64.6123 52.1862C64.6123 52.1862 64.6123 52.1862 64.5915 52.1862L62.904 48.1237L62.2998 46.6445V43.332C62.2998 42.0195 62.4248 40.7279 62.654 39.4779C62.7581 38.9987 62.8623 38.5195 62.9873 38.0612C64.7581 37.0404 66.6123 36.1029 68.5081 35.2695C72.8415 33.332 77.4873 31.8945 82.2998 31.0195C85.8831 30.3737 89.6123 30.0195 93.3831 30.0195C108.612 30.0195 122.425 35.5404 133.216 44.5404C133.633 44.8737 134.029 45.207 134.425 45.5612C135.404 46.4154 136.362 47.3112 137.3 48.2695Z" fill="#673AB7"/>
<path d="M137.3 54.4792V65.1875L136.112 67.6667L133.862 72.3542L133.841 72.4167C133.841 73.3125 133.8 74.125 133.737 74.8542C133.529 77.25 132.946 78.7708 131.987 79.7083C131.3 80.4167 130.446 80.8125 129.383 81.0208C129.321 81.0417 129.237 81.0417 129.175 81.0625C128.841 81.125 128.487 81.1667 128.112 81.1667C126.821 81.2917 125.3 81.2083 123.55 81.0833C123.362 81.0833 123.154 81.0625 122.946 81.0417C121.675 80.9583 120.321 80.875 118.821 80.8125C118.008 80.7917 117.154 80.7708 116.279 80.7708H116.237L114.133 80.9375H114.112L109.383 81.2708L103.987 81.6875L103.196 81.75L96.8831 82.2083L93.6123 82.4583L90.3831 82.6875C89.8206 82.6875 89.279 82.6875 88.7373 82.6667C88.7373 82.6667 88.7165 82.6458 88.7165 82.6667C86.3623 82.625 84.2581 82.4792 82.3831 82.125C80.654 81.8333 79.1331 81.375 77.8415 80.6875C76.5081 80.0417 75.404 79.125 74.5081 77.9583C73.654 76.8125 73.029 75.375 72.6331 73.6458C72.6331 73.625 72.6331 73.625 72.6331 73.625C72.3415 72.2292 72.1748 70.6042 72.1748 68.7708L71.8623 68.2083L70.0081 64.8958L69.7373 64.4375L69.5915 64.1458L67.654 60.7083L66.6956 58.9792L65.4873 56.8333L63.404 53.1042L62.2998 51.1458V43.4792C64.1331 42.2708 66.029 41.2083 67.9873 40.25C70.3623 39.0417 72.8206 38.0208 75.3831 37.1875C78.1748 36.2708 81.0915 35.5417 84.0706 35.0625C87.0915 34.5625 90.1956 34.3125 93.3831 34.3125C107.55 34.3125 120.55 39.375 130.571 47.7917C131.029 48.1458 131.466 48.5417 131.904 48.9167C133.654 50.4792 135.321 52.1667 136.841 53.9375C137.008 54.125 137.175 54.2917 137.3 54.4792Z" fill="#8E24AA"/>
<path d="M137.3 61.4779V76.5404C136.8 76.2487 136.112 75.8945 135.258 75.5195C134.8 75.2904 134.279 75.0612 133.737 74.8529C132.946 74.4987 132.091 74.1654 131.133 73.832C130.925 73.7487 130.716 73.6862 130.487 73.6237C130.112 73.4779 129.716 73.3529 129.321 73.2279C128.091 72.8529 126.737 72.4987 125.321 72.1862C124.779 72.082 124.216 71.9779 123.654 71.8945C121.841 71.582 119.904 71.3945 117.883 71.3737C117.716 71.3529 117.529 71.3529 117.362 71.3529L112.008 71.3945L104.716 71.4362H104.696L89.0915 71.5612C84.1331 71.5612 81.0915 72.7487 79.2581 73.2279C79.2581 73.2279 79.2373 73.2279 79.2373 73.2487C77.2998 73.7487 76.6956 73.4362 76.529 70.0404C76.4873 69.1029 76.4665 67.8945 76.4665 66.4154L75.2998 65.5195L73.2581 63.9779L72.0081 63.0195L71.7581 62.832L68.2998 60.207L67.779 59.8112L66.6956 58.9779L64.6956 57.4779L62.2998 55.6445V48.5612C62.5081 48.3945 62.6956 48.2487 62.904 48.1237C65.9248 46.0404 69.154 44.2695 72.5706 42.832C75.6123 41.5404 78.8206 40.5195 82.1123 39.7904C83.0081 39.6029 83.9248 39.4154 84.8623 39.2904C87.6331 38.8112 90.4873 38.582 93.3831 38.582C105.904 38.582 117.404 42.9362 126.529 50.1445C127.904 51.2279 129.237 52.3737 130.487 53.6029C132.196 55.2279 133.8 56.957 135.279 58.7904C135.571 59.1654 135.862 59.5404 136.154 59.9362C136.55 60.4362 136.925 60.957 137.3 61.4779Z" fill="#C2185B"/>
<path d="M137.3 69.8333V76.6667C137.3 78.0208 137.175 79.3542 136.925 80.6458C136.55 82.5625 135.904 84.3958 135.029 86.1042C134.571 86.2083 134.05 86.2083 133.466 86.125C132.154 85.8958 130.612 85.2083 128.946 84.3125C128.862 84.2917 128.779 84.25 128.716 84.2083C128.196 83.9375 127.654 83.6458 127.112 83.3125C126.008 82.7083 124.841 82.0417 123.675 81.4167C123.425 81.2917 123.175 81.1667 122.946 81.0417C121.612 80.3542 120.237 79.7292 118.862 79.25C118.862 79.25 118.862 79.25 118.841 79.25C118.55 79.1458 118.237 79.0417 117.925 78.9583C116.737 78.625 115.529 78.4167 114.362 78.4167L112.071 77.75L101.925 74.8125C101.925 74.8125 101.925 74.8125 101.904 74.8125L95.6748 73H95.654L92.9456 72.2083C85.1123 72.2083 80.2998 75.5417 77.9665 74.2708C77.0498 73.7917 76.5081 72.5833 76.3206 70.2083C76.2581 69.5417 76.2373 68.7917 76.2373 67.9167L73.7998 66.7292L73.6956 66.6875H73.6748L71.9248 65.8125L70.0081 64.8958L69.8623 64.8333L69.5081 64.6458L65.4248 62.6667L62.2998 61.1458V54C62.654 53.6875 63.029 53.3958 63.404 53.1042C63.7998 52.7917 64.1956 52.5 64.5915 52.1875C64.6123 52.1875 64.6123 52.1875 64.6123 52.1875C67.0706 50.4167 69.6748 48.8542 72.4456 47.5625C75.6748 46.0208 79.1123 44.8333 82.6748 44.0625C83.1956 43.9375 83.7373 43.8125 84.279 43.7292C87.2373 43.1667 90.279 42.875 93.3831 42.875C104.362 42.875 114.446 46.4375 122.571 52.4375C124.925 54.1875 127.112 56.125 129.112 58.2292C130.758 59.9583 132.279 61.8333 133.654 63.7917C133.758 63.9375 133.862 64.0833 133.966 64.2083C134.737 65.3333 135.446 66.4792 136.112 67.6667C136.55 68.375 136.925 69.1042 137.3 69.8333Z" fill="#D81B60"/>
<path d="M136.925 80.6445C136.55 82.5612 135.904 84.3945 135.029 86.1029C134.633 86.8737 134.196 87.6029 133.716 88.3112C133.425 88.7487 133.112 89.1654 132.8 89.5612C132.05 89.2695 130.946 88.8529 129.591 88.3945C129.591 88.3945 129.591 88.3945 129.591 88.3737C128.571 88.0195 127.404 87.6445 126.154 87.2904C125.8 87.1862 125.446 87.082 125.071 86.9779C123.591 86.582 122.05 86.2279 120.55 86.0195C119.3 85.8112 118.071 85.6862 116.925 85.6862L115.966 85.4154H115.946L110.904 83.957L107.8 83.0612L104.341 82.0612H104.321L103.196 81.7487L89.5915 77.832L85.6748 76.707L82.7581 76.0195L78.0081 74.8945L77.4248 74.7487C77.4248 74.7487 77.4248 74.7487 77.404 74.7487L72.6331 73.6445C72.6331 73.6237 72.6331 73.6237 72.6331 73.6237L71.779 73.4362L71.3415 73.332L67.8623 72.5195L67.4665 72.4154L64.5081 69.9779L62.2998 68.1237V59.6237C63.0706 58.8737 63.8623 58.1654 64.6956 57.4779C64.9456 57.2487 65.2165 57.0404 65.4873 56.832C65.7373 56.6237 66.0081 56.4154 66.279 56.207C68.1748 54.7695 70.1748 53.4779 72.2998 52.3737C75.0081 50.9154 77.8831 49.7487 80.904 48.9154C81.4873 48.7279 82.0706 48.5612 82.6748 48.4362C86.0915 47.582 89.6748 47.1445 93.3831 47.1445C102.696 47.1445 111.362 49.957 118.529 54.7695C122.091 57.1654 125.3 60.0404 128.008 63.3112C129.383 64.957 130.633 66.6862 131.737 68.5195C131.841 68.6654 131.925 68.7904 132.008 68.9362C132.675 70.0404 133.3 71.1862 133.862 72.3529C134.383 73.3945 134.841 74.4362 135.258 75.5195C135.925 77.1862 136.466 78.8945 136.925 80.6445Z" fill="#F50057"/>
<path d="M133.716 88.3125C133.425 88.75 133.112 89.1667 132.8 89.5625C131.883 90.7083 130.883 91.75 129.758 92.6667C128.779 93.4792 127.737 94.2083 126.633 94.8333C126.216 94.7292 125.8 94.6042 125.362 94.4375C123.987 93.9583 122.55 93.1667 121.216 92.3333C119.216 91.0625 117.487 89.6875 116.716 89.0625C116.425 88.8125 116.279 88.6875 116.279 88.6875L112.737 88.375L112.3 88.3333L107.716 87.9375L102.966 87.5208L95.9456 86.8958L84.8206 85.9167L84.779 85.8958L80.8623 84L76.904 82.0833L73.7165 80.5417L73.029 80.2083L72.1748 79.7917L69.2165 78.3542L65.279 76.4583L64.0498 75.8542L62.2998 75.3125V66C63.279 64.8333 64.3206 63.7292 65.4248 62.6667C66.1331 62 66.8831 61.3333 67.654 60.7083C67.779 60.6042 67.904 60.5 68.029 60.4167C68.1123 60.3125 68.2165 60.25 68.2998 60.2083C69.529 59.2083 70.8206 58.3125 72.154 57.5C73.6956 56.5208 75.3206 55.6458 77.0081 54.9167C78.8206 54.1042 80.7165 53.4167 82.6748 52.8958C86.0706 51.9375 89.6748 51.4375 93.3831 51.4375C101.883 51.4375 109.737 54.0208 116.216 58.4583C120.362 61.2917 123.946 64.875 126.779 69.0208C127.716 70.3542 128.55 71.7708 129.321 73.2292C129.591 73.7708 129.862 74.3125 130.091 74.8542C130.341 75.375 130.571 75.8958 130.8 76.4167C131.237 77.5 131.633 78.5833 131.987 79.7083C132.654 81.7917 133.154 83.9167 133.466 86.125C133.571 86.8542 133.654 87.5833 133.716 88.3125Z" fill="#FF1744"/>
<path d="M129.779 92.1237C129.779 92.2904 129.779 92.4779 129.758 92.6654C128.779 93.4779 127.737 94.207 126.633 94.832C126.175 95.082 125.716 95.332 125.237 95.5404C124.758 95.7695 124.279 95.9779 123.779 96.1654C123.071 95.7904 122.112 95.332 121.091 94.8945C119.654 94.2487 118.091 93.6654 116.883 93.4779C116.591 93.4154 116.321 93.3945 116.071 93.3945L112.654 92.957H112.612L108.362 92.3945L104.071 91.832L102.071 91.582L86.3206 89.5404C85.2998 89.5404 84.2165 89.4779 83.0915 89.332C81.7165 89.207 80.279 88.9987 78.8415 88.707C77.4248 88.457 75.9873 88.1237 74.6123 87.7695C73.1748 87.4362 71.7581 87.0404 70.4456 86.6654C68.9248 86.207 67.5081 85.7695 66.3206 85.3737C65.3415 85.0612 64.5081 84.7695 63.8623 84.5404C63.4873 83.6445 63.1748 82.707 62.9456 81.7487C62.5081 80.1237 62.2998 78.4154 62.2998 76.6654V73.1862C62.9665 72.082 63.6956 70.9987 64.5081 69.9779C65.9873 68.0195 67.6748 66.2279 69.5081 64.6445C69.5706 64.5612 69.654 64.4987 69.7165 64.457L69.7373 64.4362C70.3831 63.8529 71.0498 63.332 71.7581 62.832C71.8415 62.7487 71.9248 62.6862 72.0081 62.6237C72.3415 62.3737 72.6956 62.1237 73.0706 61.8945C76.0498 59.8737 79.3415 58.2904 82.8623 57.2279C86.1956 56.2279 89.7165 55.707 93.3831 55.707C100.654 55.707 107.446 57.8529 113.112 61.5195C117.3 64.207 120.904 67.7487 123.654 71.8945C123.987 72.3737 124.3 72.8529 124.612 73.3529C126.05 75.7904 127.237 78.4154 128.112 81.1654C128.216 81.4779 128.3 81.7904 128.383 82.1237C128.55 82.6862 128.696 83.2695 128.821 83.8529C128.862 83.9987 128.904 84.1445 128.946 84.3112C129.237 85.6237 129.446 86.9987 129.591 88.3737C129.591 88.3945 129.591 88.3945 129.591 88.3945C129.716 89.6237 129.779 90.8737 129.779 92.1237Z" fill="#FF5722"/>
<path d="M125.487 92.125C125.487 92.8542 125.446 93.6458 125.362 94.4375C125.321 94.8125 125.279 95.1875 125.237 95.5417C124.758 95.7708 124.279 95.9792 123.779 96.1667C122.841 96.5208 121.883 96.8125 120.904 97.0208C120.237 97.1667 119.55 97.2917 118.862 97.3542H118.841C118.196 96.9583 117.446 96.4792 116.675 95.9375C115.279 94.9583 113.821 93.8542 112.654 92.9583C112.633 92.9375 112.633 92.9375 112.612 92.9167C111.383 91.9792 110.508 91.2708 110.508 91.2708L108.3 91.3542L104.05 91.5L102.071 91.5833L94.1122 91.875L87.3831 92.125C86.9456 92.1458 86.4247 92.1458 85.7789 92.125H85.7581C84.8831 92.1042 83.8414 92.0417 82.6956 91.9375C81.3622 91.8333 79.9039 91.7083 78.4247 91.5625C76.9872 91.3958 75.5289 91.2292 74.1331 91.0625C72.5914 90.8958 71.1331 90.7083 69.8831 90.5417C68.9039 90.4167 68.0497 90.3125 67.3622 90.2292C66.7789 89.5625 66.2581 88.875 65.7581 88.125C65.0081 87 64.3622 85.8125 63.8622 84.5417C63.4872 83.6458 63.1747 82.7083 62.9456 81.75C63.5497 79.8958 64.3414 78.1458 65.2789 76.4583C66.0289 75.0833 66.9039 73.7708 67.8622 72.5208C68.7997 71.2917 69.8206 70.1458 70.9247 69.1042V69.0833C71.2372 68.7708 71.5497 68.4792 71.8622 68.2083C72.4456 67.6667 73.0497 67.1667 73.6747 66.6875H73.6956C73.7164 66.6458 73.7372 66.6458 73.7581 66.625C74.2581 66.2292 74.7789 65.875 75.2997 65.5208C78.3831 63.4167 81.8622 61.8542 85.6122 60.9375C88.0914 60.3333 90.6956 60 93.3831 60C98.6747 60 103.675 61.2708 108.071 63.5625H108.091C111.862 65.5 115.196 68.1667 117.883 71.375C119.362 73.0833 120.633 74.9583 121.675 76.9375C122.404 78.2708 123.029 79.6667 123.55 81.0833C123.591 81.2083 123.633 81.3125 123.675 81.4167C124.029 82.4583 124.341 83.5417 124.612 84.625C124.8 85.3958 124.946 86.1875 125.071 86.9792C125.112 87.2292 125.154 87.4583 125.175 87.7083C125.383 89.1458 125.487 90.625 125.487 92.125Z" fill="#FF6F00"/>
<path d="M121.216 92.1263V92.3346C121.216 93.043 121.154 93.9388 121.091 94.8971C121.029 95.6055 120.966 96.3346 120.904 97.0221C120.237 97.168 119.55 97.293 118.862 97.3555H118.841C118.05 97.4596 117.279 97.5013 116.466 97.5013H112.821L112.029 97.2721L107.925 96.0221L103.758 94.7721L94.1122 91.8763L89.9456 90.6263C89.9456 90.6263 88.2164 91.3138 85.7789 92.1263H85.7581C84.8206 92.4388 83.7997 92.7721 82.7164 93.1055C81.3622 93.5013 79.9247 93.8971 78.5081 94.2096C77.0497 94.543 75.6122 94.793 74.3206 94.8971C73.9247 94.9388 73.5289 94.9596 73.1747 94.9596C72.0081 94.3138 70.8831 93.543 69.8622 92.6888C68.9664 91.9388 68.1331 91.1263 67.3622 90.2305C66.7789 89.5638 66.2581 88.8763 65.7581 88.1263C65.9039 87.1888 66.0706 86.2721 66.3206 85.3763C66.9456 82.8971 67.9247 80.5221 69.2164 78.3555C69.9247 77.1263 70.7164 75.9388 71.6331 74.8346C71.6539 74.7721 71.7164 74.7096 71.7789 74.668C71.7581 74.6471 71.7789 74.6471 71.7789 74.6471C72.0497 74.293 72.3414 73.9596 72.6331 73.6471C72.6331 73.6263 72.6331 73.6263 72.6331 73.6263C73.4872 72.7096 74.3622 71.8346 75.3206 71.0221C75.6539 70.7513 75.9664 70.4805 76.3206 70.2096C76.3831 70.1471 76.4456 70.1055 76.5289 70.043C81.2164 66.4596 87.0706 64.293 93.3831 64.293C100.55 64.293 107.071 66.9805 112.008 71.3971C114.383 73.543 116.404 76.1055 117.925 78.9596C118.05 79.168 118.175 79.3971 118.279 79.6263C118.466 80.0013 118.654 80.3971 118.821 80.8138C119.508 82.3138 120.05 83.8971 120.425 85.5221C120.466 85.6888 120.508 85.8555 120.55 86.0221C120.716 86.793 120.862 87.5846 120.966 88.3763C121.133 89.6055 121.216 90.8555 121.216 92.1263Z" fill="#FF9800"/>
<path d="M116.925 92.125C116.925 92.5417 116.904 93 116.883 93.4792C116.841 94.25 116.779 95.0833 116.675 95.9375C116.633 96.4583 116.55 96.9792 116.466 97.5H105.05L102.841 97.1458L94.2164 95.7708L92.9872 95.5833L90.1747 95.125C88.9456 95.125 86.2789 95.6667 83.4664 96.1875C81.9872 96.4583 80.4872 96.75 79.1331 96.9375C78.9664 96.9583 78.7997 96.9792 78.6539 97H78.6331C77.1747 96.6875 75.7581 96.2083 74.4247 95.5833C74.0081 95.3958 73.5914 95.1875 73.1747 94.9583C72.0081 94.3125 70.8831 93.5417 69.8622 92.6875C69.8414 92.4375 69.8206 92.2292 69.8206 92.125C69.8206 91.5833 69.8414 91.0625 69.8831 90.5417C69.9664 89.2083 70.1539 87.9167 70.4456 86.6667C70.9039 84.7708 71.5706 82.9375 72.4664 81.25C72.6331 80.8958 72.8206 80.5417 73.0289 80.2083C73.1122 80.0417 73.2164 79.8958 73.2997 79.7292C73.6747 79.125 74.0914 78.5417 74.5081 77.9583C75.3831 76.8125 76.3622 75.7292 77.4039 74.75C77.4247 74.75 77.4247 74.75 77.4247 74.75C77.5081 74.6667 77.5914 74.5833 77.6747 74.5208C77.7789 74.4375 77.8622 74.3333 77.9664 74.2708C78.3831 73.8958 78.7997 73.5625 79.2372 73.25C79.2372 73.2292 79.2581 73.2292 79.2581 73.2292C83.1956 70.2917 88.0706 68.5625 93.3831 68.5625C97.5081 68.5625 101.341 69.6042 104.696 71.4375H104.716C107.591 73.0208 110.091 75.1667 112.071 77.75C112.841 78.75 113.529 79.8125 114.112 80.9375H114.133C114.237 81.1458 114.341 81.3542 114.446 81.5625C115.071 82.7917 115.571 84.0833 115.946 85.4167H115.966C115.987 85.5208 116.029 85.625 116.05 85.7292C116.3 86.625 116.508 87.5417 116.654 88.4792C116.675 88.6667 116.696 88.875 116.716 89.0625C116.862 90.0625 116.925 91.0833 116.925 92.125Z" fill="#FFC107"/>
<path d="M112.654 91.8971C112.654 92.2305 112.654 92.5846 112.612 92.918V92.9388C112.612 92.9596 112.612 92.9596 112.612 92.9596C112.571 94.4596 112.362 95.9388 112.029 97.2721C112.029 97.3555 112.008 97.418 111.966 97.5013H102.237L94.2165 95.7721L93.154 95.543L92.9873 95.5846L84.0915 97.418L83.6956 97.5013H83.1331C81.7998 97.5013 80.4873 97.3763 79.2165 97.1263C79.029 97.0846 78.8415 97.043 78.654 97.0013H78.6331C77.1748 96.6888 75.7581 96.2096 74.4248 95.5846C74.3831 95.3555 74.3415 95.1263 74.3206 94.8971C74.1748 94.0013 74.1123 93.0638 74.1123 92.1263C74.1123 91.7721 74.1123 91.418 74.1331 91.0638C74.1956 89.9388 74.3623 88.8346 74.6123 87.7721C74.779 86.9805 75.0081 86.2096 75.279 85.4805C75.5081 84.8346 75.779 84.2096 76.0706 83.6055C76.3206 83.0846 76.6123 82.5846 76.904 82.0846C77.1956 81.6055 77.5081 81.1471 77.8415 80.6888C78.6748 79.543 79.654 78.4805 80.7373 77.543C81.3623 77.0013 82.0498 76.4805 82.7581 76.0221C85.7998 74.0221 89.4456 72.8555 93.3831 72.8555C94.154 72.8555 94.904 72.8971 95.6331 73.0013H95.6748C97.904 73.2513 99.9873 73.8763 101.904 74.8138C101.925 74.8138 101.925 74.8138 101.925 74.8138C104.946 76.293 107.508 78.5221 109.383 81.2721C109.696 81.7305 110.008 82.2305 110.279 82.7305C110.508 83.1263 110.716 83.543 110.904 83.9596C111.196 84.6055 111.466 85.293 111.696 85.9805H111.716C111.946 86.7513 112.154 87.5221 112.3 88.3346V88.3555C112.529 89.5013 112.654 90.6888 112.654 91.8971Z" fill="#FFD54F"/>
<path d="M108.362 92.332V92.3945C108.362 93.6237 108.216 94.832 107.925 96.0195C107.821 96.5195 107.675 97.0195 107.487 97.4987H98.1539L93.3831 96.1862L88.6122 97.4987H83.1331C81.7997 97.4987 80.4872 97.3737 79.2164 97.1237C79.1747 97.0612 79.1539 96.9987 79.1331 96.9362C78.8414 96.0404 78.6122 95.1445 78.5081 94.207C78.4247 93.6029 78.3831 92.9779 78.3831 92.332C78.3831 92.082 78.3831 91.8112 78.4247 91.5612C78.4456 90.582 78.5914 89.6237 78.8414 88.707C78.9664 88.082 79.1539 87.4779 79.4039 86.8945C79.4872 86.6029 79.6122 86.332 79.7581 86.0612C80.0706 85.3529 80.4456 84.6654 80.8622 83.9987C81.3206 83.332 81.8206 82.707 82.3831 82.1237C83.0497 81.3737 83.7997 80.6862 84.6539 80.1237C86.1122 79.0612 87.7789 78.2695 89.5914 77.832C90.7997 77.4987 92.0706 77.332 93.3831 77.332C97.5497 77.332 101.279 78.9987 103.987 81.6862C104.091 81.7904 104.216 81.9154 104.321 82.0612H104.341C104.633 82.3737 104.904 82.6862 105.175 83.0404C105.946 84.0195 106.591 85.082 107.091 86.2487C107.341 86.7904 107.55 87.3529 107.716 87.9362C107.737 88.0195 107.758 88.082 107.779 88.1654C108.071 89.1862 108.258 90.2487 108.3 91.3529C108.341 91.6654 108.362 91.9987 108.362 92.332Z" fill="#FFE082"/>
<path d="M104.091 92.3333C104.091 93.1875 103.987 94 103.758 94.7708C103.55 95.6042 103.237 96.3958 102.841 97.1458C102.779 97.2708 102.633 97.5 102.633 97.5H84.1331C84.1123 97.4792 84.0915 97.4375 84.0915 97.4167C83.8415 97.0208 83.6331 96.625 83.4665 96.1875C83.0498 95.2292 82.7998 94.1875 82.7165 93.1042C82.6748 92.8542 82.6748 92.5833 82.6748 92.3333C82.6748 92.2083 82.6748 92.0625 82.6956 91.9375C82.7165 91.0208 82.8415 90.1458 83.0915 89.3333C83.2998 88.5833 83.5706 87.8958 83.9248 87.2292C83.9248 87.2292 83.9456 87.2083 83.9456 87.1875C84.1956 86.75 84.4665 86.3125 84.779 85.8958C85.7998 84.5208 87.154 83.3958 88.7165 82.6667C88.7373 82.6667 88.7373 82.6667 88.7373 82.6667C89.2373 82.4167 89.7581 82.2083 90.2998 82.0625C90.2998 82.0625 90.2998 82.0625 90.3206 82.0625C91.279 81.7708 92.3206 81.625 93.3831 81.625C94.6123 81.625 95.7998 81.8125 96.8831 82.2083C97.279 82.3125 97.654 82.4792 98.029 82.6667C98.029 82.6667 98.029 82.6667 98.0498 82.6667C99.8415 83.5208 101.362 84.8542 102.404 86.5208C102.612 86.8333 102.8 87.1667 102.966 87.5208C103.05 87.6667 103.133 87.8333 103.196 87.9792C103.675 89.0625 103.966 90.25 104.05 91.5C104.071 91.6042 104.071 91.7083 104.071 91.8333C104.091 92 104.091 92.1667 104.091 92.3333Z" fill="#FFECB3"/>
<path d="M112.3 32.918H87.2999C79.1749 32.918 72.7166 39.3763 72.7166 47.5013V72.5013C72.7166 80.6263 79.1749 87.0846 87.2999 87.0846H112.3C120.425 87.0846 126.883 80.6263 126.883 72.5013V47.5013C126.883 39.3763 120.425 32.918 112.3 32.918Z" stroke="white" stroke-width="4.16667" stroke-miterlimit="10" stroke-linecap="round" stroke-linejoin="round"/>
<path d="M114.383 45.4167C115.534 45.4167 116.466 44.4839 116.466 43.3333C116.466 42.1827 115.534 41.25 114.383 41.25C113.233 41.25 112.3 42.1827 112.3 43.3333C112.3 44.4839 113.233 45.4167 114.383 45.4167Z" fill="white"/>
<path d="M99.7998 72.5C106.703 72.5 112.3 66.9036 112.3 60C112.3 53.0964 106.703 47.5 99.7998 47.5C92.8962 47.5 87.2998 53.0964 87.2998 60C87.2998 66.9036 92.8962 72.5 99.7998 72.5Z" stroke="white" stroke-width="4.16667" stroke-miterlimit="10" stroke-linecap="round" stroke-linejoin="round"/>
</svg>
