<?xml version="1.0" standalone="no"?>
<!DOCTYPE svg PUBLIC "-//W3C//DTD SVG 20010904//EN"
 "http://www.w3.org/TR/2001/REC-SVG-20010904/DTD/svg10.dtd">
<svg version="1.0" xmlns="http://www.w3.org/2000/svg"
 width="500.000000pt" height="500.000000pt" viewBox="0 0 500.000000 500.000000"
 preserveAspectRatio="xMidYMid meet">

<g transform="translate(0.000000,500.000000) scale(0.100000,-0.100000)"
fill="#246532" stroke="none">
<path d="M4144 3486 c-51 -16 -152 -76 -180 -108 -49 -54 -86 -163 -118 -348
-2 -14 -13 -59 -25 -100 -26 -97 -49 -215 -77 -395 -13 -87 -75 -385 -99 -475
-14 -52 -28 -117 -31 -145 -7 -66 -44 -141 -92 -188 l-40 -39 -77 15 c-92 17
-129 10 -169 -32 -53 -55 -29 -73 134 -106 47 -10 114 -26 149 -36 35 -11 89
-20 119 -20 49 -2 59 2 79 25 45 53 24 95 -60 118 -26 7 -46 15 -44 18 39 66
70 153 71 196 1 29 4 50 7 48 7 -4 11 5 35 86 14 47 49 188 57 230 3 14 21
115 41 225 65 356 142 713 171 792 20 52 66 98 129 129 86 42 131 27 173 -57
36 -72 43 -146 21 -219 -18 -57 -28 -71 -106 -144 -181 -169 -270 -263 -300
-315 -17 -30 -29 -58 -26 -63 3 -4 0 -8 -7 -8 -7 0 -9 -3 -6 -7 4 -3 2 -12 -4
-20 -15 -18 -20 -165 -8 -233 10 -53 28 -98 69 -169 12 -22 16 -40 11 -50 -5
-9 -18 -52 -29 -97 -13 -53 -29 -91 -46 -109 -28 -30 -56 -110 -56 -157 0 -39
25 -85 50 -93 12 -4 30 0 43 8 16 10 29 12 46 5 14 -5 97 -13 185 -19 89 -5
184 -17 212 -25 27 -9 61 -14 75 -12 37 5 62 66 67 166 l5 83 -32 12 c-17 6
-31 19 -31 28 0 31 -37 164 -65 234 -50 123 -53 127 -131 147 -91 24 -145 19
-194 -21 -29 -23 -40 -28 -48 -18 -34 41 -55 161 -42 240 17 106 41 139 237
334 224 222 237 244 232 386 -2 51 -9 106 -14 122 -31 88 -99 169 -153 185
-46 12 -57 12 -108 -4z m103 -14 c21 -13 -13 -52 -45 -52 -15 -1 -38 -7 -52
-15 -35 -20 -37 -19 -42 16 -4 27 -1 33 26 45 34 15 94 18 113 6z m85 -64 c38
-52 53 -95 38 -113 -20 -24 -38 -17 -50 19 -6 19 -24 48 -40 65 -26 27 -28 34
-18 55 13 31 33 23 70 -26z m-242 -13 c0 -12 -14 -29 -33 -41 -18 -12 -44 -43
-59 -70 -29 -55 -75 -224 -77 -288 -1 -19 -2 -19 -20 1 -11 12 -25 23 -31 25
-11 3 -9 16 27 163 29 117 75 188 153 237 27 17 40 9 40 -27z m318 -197 c4
-64 2 -75 -16 -92 -35 -31 -45 -17 -46 69 -1 69 2 82 19 97 29 24 37 9 43 -74z
m-33 -168 c-15 -29 -37 -63 -50 -76 -22 -22 -24 -23 -44 -6 l-21 17 37 57 c30
45 44 57 68 60 17 2 31 2 33 2 2 -1 -9 -26 -23 -54z m-478 -51 c6 -16 2 -55
-18 -139 -14 -64 -29 -139 -33 -166 -3 -27 -15 -96 -25 -154 -11 -58 -25 -132
-31 -165 -16 -93 -51 -248 -60 -270 -9 -20 -34 -121 -35 -140 0 -9 -52 -11
-61 -3 -1 2 6 34 16 71 10 37 18 68 18 70 0 1 6 27 14 57 9 30 23 98 32 150
10 52 23 124 31 160 8 36 26 133 40 215 21 126 52 271 70 323 7 19 31 14 42
-9z m364 -40 l21 -21 -38 -39 c-42 -43 -50 -45 -79 -23 -19 14 -18 16 25 59
25 24 46 44 48 45 1 0 11 -9 23 -21z m-91 -129 c-5 -8 -24 -30 -42 -48 l-34
-32 -24 25 -23 25 43 39 c42 38 44 39 66 23 15 -12 19 -22 14 -32z m-109 -112
c-70 -83 -77 -88 -99 -72 -12 8 -22 18 -22 22 0 4 21 33 46 66 l46 59 23 -28
c20 -26 21 -30 6 -47z m-92 -118 c-12 -22 -39 -108 -39 -125 0 -20 -19 -19
-42 2 -10 9 -18 12 -18 7 0 -15 14 -30 38 -43 16 -8 22 -21 22 -44 0 -18 4
-49 9 -69 10 -41 -4 -62 -36 -56 -31 6 -49 166 -29 265 5 23 32 80 48 100 15
18 58 -16 47 -37z m241 -331 c44 -9 49 -13 38 -26 -9 -11 -12 -61 -10 -190 l3
-175 -58 6 c-32 3 -96 8 -143 11 -118 8 -115 7 -114 62 0 42 31 163 40 163 13
0 41 -45 37 -59 -12 -48 93 -89 136 -53 21 18 24 27 36 124 5 36 14 63 26 74
25 23 24 42 -3 49 -13 3 -41 9 -63 14 -39 9 -39 9 -8 10 18 1 55 -4 83 -10z
m-227 -42 c16 -29 19 -42 11 -55 -21 -32 -40 -24 -68 28 l-27 50 23 9 c32 13
36 11 61 -32z m200 14 c37 -14 -5 -28 -70 -23 -47 3 -60 8 -56 18 6 15 93 19
126 5z m-153 -31 c0 -5 -5 -10 -11 -10 -5 0 -7 5 -4 10 3 6 8 10 11 10 2 0 4
-4 4 -10z m132 -54 c-2 -22 -6 -49 -8 -60 -16 -85 -21 -90 -89 -78 -30 6 -41
12 -43 28 -3 19 2 21 35 20 32 -1 38 3 47 28 10 26 8 31 -27 58 -20 16 -37 34
-37 39 0 6 28 9 63 7 l62 -3 -3 -39z m-118 -1 c3 -8 12 -15 19 -15 21 0 38
-25 31 -44 -9 -24 -54 -20 -89 8 -30 24 -30 24 -11 45 22 25 42 27 50 6z
m-172 -344 c-3 -61 -1 -83 12 -103 17 -27 13 -38 -15 -38 -43 0 -53 101 -17
175 12 25 23 45 23 45 1 0 0 -35 -3 -79z m599 42 c7 -35 5 -106 -4 -143 -10
-45 -37 -96 -37 -71 0 7 -6 11 -12 8 -7 -2 -12 -10 -10 -16 2 -9 -3 -9 -17 -2
-37 20 -37 100 1 184 18 40 26 47 50 47 15 0 29 -3 29 -7z m-337 -73 c17 -17
-4 -25 -64 -25 -66 1 -79 7 -59 31 10 13 24 15 63 10 27 -3 54 -10 60 -16z m0
-55 c-9 -23 -134 -18 -134 6 0 5 31 9 70 9 58 0 68 -3 64 -15z m213 -47 c-2
-13 -4 -5 -4 17 -1 22 1 32 4 23 2 -10 2 -28 0 -40z m-249 12 c31 0 42 -4 39
-12 -2 -7 -9 -12 -15 -11 -5 1 -37 3 -71 4 -51 2 -61 5 -61 20 0 15 5 16 32 8
18 -5 52 -9 76 -9z"/>
<path d="M3967 2073 c-3 -5 -8 -30 -11 -58 -4 -27 -10 -60 -13 -72 -3 -13 -1
-23 5 -23 6 0 13 18 16 40 3 22 9 58 12 80 5 37 2 51 -9 33z"/>
<path d="M4210 1980 c0 -40 4 -70 10 -70 6 0 10 30 10 70 0 40 -4 70 -10 70
-6 0 -10 -30 -10 -70z"/>
<path d="M4434 1814 c19 -50 17 -83 -9 -146 -11 -28 11 -21 23 7 21 46 14 155
-10 155 -6 0 -7 -7 -4 -16z"/>
<path d="M650 2606 c0 -69 -4 -136 -9 -149 -12 -32 -39 -41 -67 -22 -22 14
-23 13 -34 -21 -11 -31 -10 -37 7 -49 22 -17 106 -19 135 -4 38 20 48 69 48
224 l0 145 -40 0 -40 0 0 -124z"/>
<path d="M911 2708 c-5 -13 -37 -93 -71 -178 -34 -85 -64 -161 -67 -167 -4 -9
8 -13 39 -13 43 0 45 1 58 40 l13 41 75 -3 75 -3 12 -35 c11 -33 15 -35 58
-38 l46 -3 -77 190 -77 191 -38 0 c-30 0 -39 -5 -46 -22z m63 -131 c32 -77 32
-77 -17 -77 l-45 0 21 55 c11 30 21 55 23 55 2 0 10 -15 18 -33z"/>
<path d="M1190 2541 l0 -191 40 0 40 0 0 116 c0 63 4 113 8 110 5 -3 40 -55
78 -115 l69 -110 43 -1 42 0 0 190 0 190 -40 0 -40 0 0 -115 c0 -63 -3 -115
-7 -115 -5 1 -40 51 -78 113 -70 112 -71 112 -113 115 l-42 3 0 -190z"/>
<path d="M1590 2540 l0 -190 40 0 40 0 0 190 0 190 -40 0 -40 0 0 -190z"/>
<path d="M1730 2696 c0 -34 1 -35 43 -38 l42 -3 3 -152 3 -153 39 0 39 0 3
153 3 152 43 3 c41 3 42 4 42 38 l0 34 -130 0 -130 0 0 -34z"/>
<path d="M2145 2716 c-38 -17 -80 -62 -94 -99 -6 -16 -11 -53 -11 -84 0 -110
73 -183 184 -183 32 0 69 6 84 14 122 63 137 248 27 332 -30 23 -50 29 -99 31
-37 2 -73 -2 -91 -11z m149 -97 c51 -60 26 -170 -43 -189 -88 -24 -154 66
-116 158 20 49 40 62 91 62 35 0 47 -5 68 -31z"/>
<path d="M2480 2540 l0 -190 40 0 39 0 3 76 3 76 47 -65 c63 -85 68 -89 123
-85 l46 3 -61 73 -61 72 35 34 c31 29 36 40 36 78 0 85 -51 118 -182 118 l-68
0 0 -190z m156 95 c20 -31 -2 -69 -44 -73 l-32 -3 0 51 0 51 31 -3 c18 -2 37
-12 45 -23z"/>
<path d="M2830 2540 l0 -190 40 0 40 0 0 190 0 190 -40 0 -40 0 0 -190z"/>
<path d="M3100 2708 c-36 -84 -140 -343 -140 -350 0 -4 18 -8 41 -8 38 0 42 2
56 40 l16 40 72 0 72 0 16 -40 c14 -38 18 -40 56 -40 23 0 41 3 41 8 0 4 -33
88 -73 187 l-74 180 -36 3 c-31 3 -39 -1 -47 -20z m75 -168 l14 -40 -44 0 -45
0 20 53 c11 28 20 54 20 57 1 10 21 -31 35 -70z"/>
<path d="M3380 2540 l0 -190 105 0 105 0 0 35 0 35 -65 0 -65 0 0 155 0 155
-40 0 -40 0 0 -190z"/>
<path d="M1352 2333 c-6 -16 -13 -39 -16 -53 -9 -40 -87 -152 -102 -146 -8 3
-11 0 -8 -8 3 -7 -2 -19 -11 -26 -15 -13 -21 -50 -7 -50 4 0 21 16 37 35 17
19 42 37 56 40 25 6 27 4 34 -41 9 -61 14 -74 31 -74 11 0 14 17 14 70 0 64 3
73 26 95 27 25 27 25 4 25 -15 0 -20 4 -16 15 14 38 18 115 6 130 -19 23 -36
18 -48 -12z m-22 -148 c0 -24 -24 -45 -36 -32 -5 5 24 57 32 57 2 0 4 -11 4
-25z"/>
<path d="M2483 2275 c-11 -23 -24 -35 -37 -35 -16 0 -18 -2 -7 -9 12 -8 12
-18 -2 -68 -22 -76 -21 -96 1 -123 25 -30 63 -21 93 23 l23 32 -25 -22 c-45
-41 -62 -22 -47 50 14 64 41 111 68 118 24 7 24 7 3 8 -19 1 -23 7 -23 31 0
42 -26 39 -47 -5z m28 -18 c-13 -13 -15 1 -4 30 7 17 8 17 11 -1 2 -10 -1 -23
-7 -29z m-21 -64 c-11 -17 -11 -17 -6 0 3 10 6 24 7 30 0 9 2 9 5 0 3 -7 0
-20 -6 -30z"/>
<path d="M3374 2275 c-10 -19 -25 -35 -33 -35 -11 0 -12 -3 -5 -10 8 -8 5 -31
-9 -79 -18 -60 -18 -71 -6 -97 22 -46 64 -41 106 14 18 24 33 49 33 55 0 7 -6
3 -12 -8 -17 -32 -50 -65 -65 -65 -21 0 -15 74 11 134 20 45 29 55 53 59 l28
4 -29 2 c-21 1 -27 5 -22 16 7 20 -3 45 -18 45 -7 0 -21 -16 -32 -35z m32 -23
c-11 -10 -15 4 -8 28 l7 25 3 -23 c2 -13 1 -26 -2 -30z m-18 -53 c-6 -16 -12
-29 -13 -27 -6 6 8 58 16 58 4 0 3 -14 -3 -31z"/>
<path d="M2095 2239 c-10 -15 3 -25 16 -12 7 7 7 13 1 17 -6 3 -14 1 -17 -5z"/>
<path d="M1491 2222 c-6 -11 -20 -55 -31 -100 -32 -122 -16 -256 16 -145 12
40 92 203 99 203 12 0 4 -50 -10 -63 -8 -8 -11 -18 -7 -22 4 -5 2 -5 -5 -1
-19 10 -27 -14 -10 -31 13 -13 17 -12 38 16 12 17 28 31 34 31 6 0 20 7 31 16
19 15 19 16 -1 9 -36 -12 -39 -10 -45 20 -8 43 -31 37 -58 -13 -29 -53 -39
-48 -22 12 18 64 -4 115 -29 68z"/>
<path d="M1680 2168 c-28 -88 -41 -243 -19 -236 7 2 16 18 20 34 3 17 16 51
29 76 23 46 23 46 40 26 l17 -21 21 30 c12 17 33 34 47 37 14 4 25 11 25 17 0
6 -6 6 -19 -1 -28 -15 -31 -13 -31 19 0 58 -35 48 -70 -18 -21 -40 -25 -26 -9
32 5 21 7 47 4 57 -12 39 -32 19 -55 -52z m105 -27 c-4 -17 -11 -31 -16 -31
-6 0 -8 -4 -4 -9 3 -5 0 -13 -6 -17 -8 -4 -9 -3 -5 4 4 7 2 12 -4 12 -6 0 -1
18 10 41 24 46 35 46 25 0z"/>
<path d="M2615 2204 c-22 -54 -37 -113 -30 -124 14 -23 45 -7 85 44 53 70 82
95 53 46 -32 -54 -37 -79 -18 -86 11 -5 30 6 56 32 l39 38 0 -32 c0 -42 24
-52 53 -22 l22 22 -27 -17 -28 -17 0 41 c0 39 -11 53 -25 31 -3 -5 -15 -14
-25 -20 -17 -9 -18 -7 -13 25 4 27 2 36 -12 41 -12 5 -28 -5 -56 -37 l-39 -44
11 33 c9 25 9 40 0 58 -15 33 -28 30 -46 -12z"/>
<path d="M3486 2218 c-20 -28 -20 -47 0 -98 15 -36 15 -43 2 -58 -27 -31 -33
-48 -10 -28 24 21 29 8 12 -25 -8 -15 -7 -19 4 -19 18 0 46 38 46 61 0 9 16
29 35 43 42 32 47 56 6 27 -16 -12 -34 -21 -40 -21 -17 0 -41 54 -30 71 11 18
12 56 0 64 -5 3 -17 -5 -25 -17z"/>
<path d="M1902 2221 c-14 -8 -20 -44 -25 -126 -2 -35 1 -40 20 -43 17 -2 28 6
43 30 15 25 29 34 57 39 l38 6 -37 2 c-35 1 -38 4 -38 29 0 16 -7 37 -16 48
-15 18 -15 18 -5 -3 16 -32 14 -63 -4 -63 -24 0 -42 47 -27 71 14 21 13 22 -6
10z m19 -134 c-8 -8 -11 -7 -11 4 0 9 3 19 7 23 4 4 9 2 11 -4 3 -7 -1 -17 -7
-23z"/>
<path d="M2196 2170 c-15 -33 -30 -76 -33 -95 -5 -32 -4 -35 19 -35 18 0 29 8
37 28 7 15 25 43 42 62 l29 34 0 -28 c0 -86 78 -90 125 -6 5 8 -8 0 -28 -17
-21 -18 -42 -33 -47 -33 -6 0 -10 22 -10 49 0 63 -17 70 -61 25 -18 -18 -34
-32 -35 -31 -2 2 3 21 11 42 9 28 10 44 3 53 -17 20 -24 14 -52 -48z"/>
<path d="M3084 2156 c-39 -82 -41 -109 -7 -114 17 -3 26 5 36 30 8 18 29 47
47 63 32 29 33 29 27 6 -3 -13 -2 -34 3 -47 18 -46 81 -26 115 36 5 8 -8 0
-28 -17 -52 -46 -61 -43 -53 17 6 48 6 50 -18 50 -15 0 -34 -12 -49 -30 -34
-39 -39 -38 -21 6 15 36 11 74 -7 74 -6 0 -26 -33 -45 -74z"/>
<path d="M2915 2196 c-17 -26 -27 -80 -19 -101 3 -8 19 -18 36 -24 38 -13 92
10 117 49 14 22 11 21 -22 -7 -21 -18 -46 -33 -57 -33 -22 0 -44 35 -36 57 5
13 9 13 22 2 14 -11 18 -10 30 6 20 26 17 52 -5 65 -31 16 -49 12 -66 -14z
m61 -31 c-3 -9 -11 -13 -16 -10 -8 5 -7 11 1 21 14 18 24 11 15 -11z"/>
<path d="M2077 2186 c-8 -9 -21 -31 -27 -50 -28 -87 63 -107 106 -23 l17 32
-31 -33 c-17 -19 -36 -31 -42 -27 -13 8 -13 51 1 77 15 27 -3 45 -24 24z"/>
</g>
</svg>
