<?xml version="1.0" standalone="no"?>
<!DOCTYPE svg PUBLIC "-//W3C//DTD SVG 20010904//EN"
 "http://www.w3.org/TR/2001/REC-SVG-20010904/DTD/svg10.dtd">
<svg version="1.0" xmlns="http://www.w3.org/2000/svg"
 width="638.000000pt" height="415.000000pt" viewBox="0 0 638.000000 415.000000"
 preserveAspectRatio="xMidYMid meet">

<g transform="translate(0.000000,415.000000) scale(0.100000,-0.100000)"
fill="#246532" stroke="none">
<path d="M3658 3978 c-9 -8 -25 -69 -43 -163 -15 -82 -109 -559 -209 -1060
l-181 -910 -27 -3 -28 -3 0 85 0 86 -70 0 -70 0 0 -85 0 -85 -45 0 -45 0 0
-60 0 -60 45 0 45 0 0 -182 c0 -173 1 -186 25 -236 l24 -53 -29 -82 c-36 -97
-70 -135 -153 -173 l-61 -27 -210 7 -211 7 -54 -28 c-68 -35 -88 -70 -97 -175
-6 -71 -5 -80 20 -121 l26 -45 -67 -62 c-79 -74 -168 -120 -233 -120 -25 0
-112 9 -194 20 -81 11 -194 20 -251 20 -88 0 -104 2 -109 17 -7 16 3 173 10
173 2 0 20 -12 41 -26 32 -22 46 -25 89 -22 64 5 106 34 134 94 43 88 7 210
-73 247 -64 31 -164 15 -181 -28 -8 -23 -25 -9 -19 15 5 17 0 20 -31 20 l-36
0 -2 -247 -3 -248 -40 -2 c-22 -2 -106 -12 -187 -24 -124 -18 -159 -20 -220
-11 -68 10 -89 9 -76 -4 3 -3 36 -9 72 -15 68 -9 189 0 291 21 28 6 142 14
255 17 178 5 222 3 330 -15 69 -12 154 -24 190 -27 63 -6 67 -5 127 32 33 21
91 65 128 98 38 34 74 59 83 57 9 -2 59 -6 110 -9 50 -3 92 -8 92 -12 0 -13
-78 -74 -131 -101 -71 -37 -158 -59 -259 -67 -44 -3 -77 -10 -74 -14 7 -12 69
-11 133 1 43 8 55 7 68 -5 8 -8 27 -15 43 -15 35 0 157 37 165 50 3 6 11 10
16 10 6 0 7 -5 3 -11 -5 -9 7 -10 46 -5 56 8 124 39 178 82 l32 27 -14 -41
c-8 -22 -21 -54 -30 -70 -23 -45 -20 -52 24 -52 82 0 150 47 194 134 16 31 34
56 41 56 7 0 16 -30 23 -80 6 -44 20 -97 31 -118 22 -44 70 -94 84 -89 13 4
64 166 73 229 4 27 12 48 18 48 6 0 25 -28 41 -62 38 -77 87 -118 151 -126
l47 -5 -8 39 c-26 131 -31 123 42 68 75 -57 258 -102 258 -64 0 9 -7 14 -17
12 -9 -1 -33 4 -53 12 -19 8 -42 13 -50 10 -30 -12 -184 67 -185 94 0 7 14 12
37 12 30 0 45 -9 90 -51 30 -28 57 -49 60 -45 3 3 -14 23 -38 45 l-44 40 132
-2 c115 -1 134 1 152 17 32 29 54 110 55 211 2 101 17 138 62 155 40 16 60 12
93 -16 l31 -26 0 -124 0 -124 35 0 35 0 0 108 c0 89 3 112 20 140 36 58 110
66 150 15 17 -22 20 -41 20 -144 l0 -119 35 0 35 0 0 131 c0 101 -4 139 -16
165 -23 48 -64 67 -131 62 -44 -4 -60 -11 -87 -37 -34 -33 -34 -33 -45 -12
-34 63 -191 68 -215 6 -8 -22 -26 -9 -26 19 0 19 -4 22 -30 18 -32 -5 -47 -34
-37 -72 5 -19 5 -19 -22 0 -28 21 -97 39 -148 40 -23 0 -33 5 -33 15 0 10 -11
15 -35 15 -23 0 -34 -4 -33 -12 4 -17 -69 -16 -110 1 -17 7 -38 24 -48 38 -9
14 -11 22 -5 19 7 -5 11 5 11 28 0 35 -1 36 -40 36 l-40 0 0 44 c0 57 17 104
37 102 18 -1 29 31 35 96 3 40 1 43 -27 48 -24 5 -30 10 -28 30 2 33 71 384
178 905 47 231 106 524 131 650 40 201 185 911 199 973 4 15 -2 30 -19 47 -21
20 -35 25 -79 25 -29 0 -60 -6 -69 -12z m65 -337 c9 -9 -50 -332 -109 -601
-14 -63 -52 -250 -84 -415 -48 -246 -133 -662 -155 -762 -5 -21 -11 -23 -61
-23 l-57 0 6 33 c3 17 20 97 37 177 16 80 41 204 55 275 13 72 51 263 84 425
32 162 82 412 111 555 28 143 56 282 62 309 l10 48 46 -6 c25 -3 50 -10 55
-15z m-524 -1948 c0 -16 -7 -50 -14 -78 l-13 -50 -1 78 c-1 62 2 77 14 77 10
0 15 -9 14 -27z m151 18 c0 -6 -12 -65 -26 -133 -14 -68 -28 -140 -31 -161
l-6 -39 -45 7 c-74 11 -71 3 -45 138 13 67 28 139 34 160 l10 37 54 0 c30 0
55 -4 55 -9z m-195 -368 c-4 -10 -12 -49 -17 -88 -10 -65 -22 -90 -39 -80 -6
4 15 144 26 173 2 6 12 12 21 12 11 0 14 -5 9 -17z m-45 -215 c-13 -74 -29
-113 -47 -116 -21 -3 -21 -2 -7 45 21 71 22 73 39 73 8 0 15 -1 15 -2z m225
-88 c10 -11 13 -20 7 -20 -6 0 -16 9 -22 20 -6 11 -9 20 -7 20 2 0 12 -9 22
-20z m-556 -108 c94 -5 126 -10 129 -21 4 -12 -27 -13 -208 -8 -117 4 -215 9
-218 12 -3 2 1 11 7 19 10 12 29 14 89 10 43 -3 133 -9 201 -12z m445 9 c81
-4 111 -10 114 -20 4 -12 -17 -13 -134 -7 -210 10 -294 18 -288 27 6 10 140
10 308 0z m-1588 -64 c30 -27 36 -39 37 -78 2 -55 -17 -95 -55 -115 -47 -24
-86 -18 -124 20 -30 30 -34 40 -34 86 0 46 4 56 34 86 46 46 92 47 142 1z
m1452 26 c-10 -2 -26 -2 -35 0 -10 3 -2 5 17 5 19 0 27 -2 18 -5z m200 -10
c-32 -2 -86 -2 -120 0 -35 2 -9 3 57 3 66 0 94 -1 63 -3z m380 -10 c89 -9 55
-26 -48 -23 -161 4 -243 14 -248 29 -4 11 16 13 119 7 68 -4 148 -9 177 -13z
m-1313 -34 c-8 -23 -15 -49 -15 -59 0 -10 -7 -23 -15 -30 -13 -10 -15 -9 -15
11 0 52 30 115 57 119 1 0 -4 -19 -12 -41z m284 -285 c9 -9 -100 -104 -125
-110 -12 -3 -43 -17 -70 -30 -28 -14 -64 -24 -88 -23 l-41 1 30 11 c66 26 117
59 172 113 50 48 62 55 87 50 16 -4 32 -9 35 -12z m121 -3 c0 -19 -93 -90
-137 -105 -81 -28 -98 -16 -38 25 19 13 42 39 52 57 16 30 21 32 70 32 29 0
53 -4 53 -9z m168 -6 c35 -12 -76 -145 -143 -171 -57 -21 -69 -13 -49 34 9 20
23 57 30 82 8 25 16 50 18 55 3 9 116 9 144 0z m235 -60 c-2 -55 -45 -187 -62
-193 -19 -6 -69 87 -80 152 -18 103 -22 97 67 94 l77 -3 -2 -50z m216 35 c13
-7 20 -27 25 -70 4 -34 10 -68 13 -76 8 -21 -23 -18 -67 7 -33 19 -110 117
-110 140 0 12 117 11 139 -1z"/>
<path d="M2692 2090 c-29 -27 -37 -64 -22 -101 35 -83 160 -55 160 36 0 72
-86 113 -138 65z"/>
<path d="M4705 2085 c-59 -58 -14 -154 65 -141 45 7 70 38 70 86 0 72 -85 106
-135 55z"/>
<path d="M5680 1655 l0 -445 70 0 70 0 0 445 0 445 -70 0 -70 0 0 -445z"/>
<path d="M920 1763 c0 -153 -5 -296 -10 -318 -12 -52 -59 -95 -103 -95 -34 0
-110 31 -121 49 -13 20 -23 12 -59 -50 -42 -71 -43 -69 49 -113 112 -55 221
-44 303 30 79 71 81 84 81 456 l0 318 -70 0 -70 0 0 -277z"/>
<path d="M1359 1828 c-89 -32 -121 -54 -110 -76 4 -9 16 -34 26 -54 l18 -38
31 23 c45 34 90 47 163 47 61 0 67 -2 99 -34 26 -26 34 -42 34 -70 l0 -36
-120 1 c-144 0 -190 -11 -241 -59 -50 -47 -70 -125 -50 -193 17 -58 75 -114
131 -129 83 -23 208 5 249 54 24 29 44 20 39 -19 l-4 -35 68 0 68 0 0 228 c0
242 -6 284 -47 332 -44 53 -97 73 -198 77 -74 3 -102 0 -156 -19z m245 -334
c24 -9 20 -75 -7 -115 -33 -50 -80 -71 -150 -66 -46 3 -63 9 -83 29 -51 50
-29 127 40 147 36 11 177 14 200 5z"/>
<path d="M2183 1835 c-18 -7 -52 -32 -77 -56 l-46 -42 0 52 0 51 -70 0 -70 0
0 -315 0 -315 70 0 70 0 0 178 c0 187 9 243 43 280 71 77 208 68 252 -17 12
-24 15 -70 15 -236 l0 -205 70 0 70 0 0 229 c0 180 -3 238 -15 272 -32 90
-107 139 -215 138 -36 0 -79 -6 -97 -14z"/>
<path d="M3657 1831 c-71 -29 -129 -81 -162 -147 -27 -54 -30 -68 -30 -159 0
-85 4 -107 24 -149 32 -65 82 -113 150 -145 47 -22 70 -26 141 -26 73 0 93 4
142 28 67 33 121 90 155 164 22 47 25 65 21 141 -4 102 -27 158 -89 221 -62
62 -119 85 -219 88 -66 3 -96 -1 -133 -16z m216 -131 c57 -39 81 -84 85 -160
4 -71 -9 -111 -52 -158 -98 -108 -279 -49 -306 99 -10 54 5 126 36 172 50 76
162 98 237 47z"/>
<path d="M4467 1824 c-29 -15 -57 -39 -69 -60 -11 -19 -22 -34 -23 -32 -2 2
-5 26 -7 53 l-5 50 -66 3 -67 3 0 -316 0 -315 65 0 c64 0 65 0 65 27 0 142 10
315 20 348 17 54 67 102 116 110 80 13 86 15 80 31 -3 9 -6 40 -6 70 0 52 -1
54 -27 54 -16 -1 -50 -12 -76 -26z"/>
<path d="M5143 1835 c-65 -18 -133 -52 -133 -66 0 -5 10 -31 22 -58 l23 -47
49 30 c40 25 62 31 120 34 39 2 83 -1 98 -7 30 -11 54 -50 59 -95 l4 -29 -119
-4 c-133 -4 -177 -12 -226 -46 -51 -34 -72 -77 -74 -152 -1 -55 3 -69 29 -106
36 -51 86 -79 157 -86 69 -7 124 9 188 53 50 34 52 35 50 12 -5 -57 -4 -58 66
-58 l65 0 -3 249 -3 249 -30 44 c-47 66 -102 91 -205 95 -53 2 -105 -3 -137
-12z m239 -380 c-6 -63 -29 -102 -76 -125 -73 -35 -169 -20 -196 29 -15 28
-12 73 5 99 22 31 66 41 175 39 l95 -2 -3 -40z"/>
<path d="M2680 1525 l0 -315 65 0 65 0 0 315 0 315 -65 0 -65 0 0 -315z"/>
<path d="M4690 1525 l0 -315 68 0 67 0 -1 303 c-1 166 -2 308 -3 315 -1 8 -21
12 -66 12 l-65 0 0 -315z"/>
<path d="M3543 1093 c-7 -2 -13 -18 -13 -34 0 -26 3 -29 35 -29 32 0 35 3 35
29 0 34 -23 48 -57 34z"/>
<path d="M937 852 c-53 -125 -97 -231 -97 -235 0 -5 16 -7 37 -5 32 3 38 7 50
42 22 65 24 66 149 66 123 0 119 2 144 -65 14 -36 19 -40 53 -43 20 -2 37 0
37 3 0 7 -80 199 -153 367 l-42 98 -40 0 -40 0 -98 -228z m184 43 c22 -54 39
-101 39 -106 0 -5 -40 -9 -90 -9 -49 0 -90 2 -90 4 0 2 16 42 36 88 20 45 40
94 45 107 5 13 12 21 15 18 4 -3 24 -49 45 -102z"/>
<path d="M5390 1005 c0 -41 -2 -45 -25 -45 -21 0 -25 -5 -25 -30 0 -25 4 -30
25 -30 l25 0 0 -107 c0 -154 25 -189 126 -181 36 3 39 6 42 35 3 31 2 32 -30
27 -56 -8 -63 3 -66 121 l-4 105 51 0 c50 0 51 1 51 30 0 29 -1 30 -50 30
l-50 0 0 45 c0 45 0 45 -35 45 -35 0 -35 0 -35 -45z"/>
<path d="M1868 962 l-28 -3 -2 -177 c-2 -152 -4 -219 -7 -279 -1 -8 -16 -13
-41 -13 -22 0 -40 -4 -40 -10 0 -13 71 -13 146 1 69 13 344 113 322 117 -8 2
-39 -7 -69 -19 -118 -47 -233 -79 -241 -66 -7 12 -10 147 -3 147 2 0 21 -12
42 -26 32 -22 46 -25 91 -22 59 5 95 27 130 78 30 44 31 143 2 199 -44 88
-190 108 -251 35 -13 -16 -14 -15 -19 12 -4 25 -9 29 -32 26z m218 -86 c30
-30 34 -40 34 -86 0 -46 -4 -56 -34 -86 -40 -40 -83 -45 -132 -15 -94 57 -51
221 58 221 32 0 47 -7 74 -34z"/>
<path d="M4590 959 c-59 -24 -95 -78 -106 -157 -9 -71 21 -132 82 -168 39 -23
53 -26 109 -22 44 3 73 10 92 24 35 26 37 36 13 52 -17 10 -25 10 -43 -3 -54
-38 -177 -3 -177 50 l0 25 136 0 137 0 -6 51 c-4 28 -16 65 -27 84 -37 60
-140 92 -210 64z m148 -84 c12 -15 22 -35 22 -46 0 -18 -8 -19 -99 -19 -57 0
-103 4 -106 10 -4 6 3 26 15 45 37 59 120 64 168 10z"/>
<path d="M4953 962 l-33 -3 0 -175 0 -174 35 0 35 0 0 100 c0 121 14 163 63
186 42 20 79 13 113 -21 23 -23 24 -31 24 -145 l0 -120 35 0 35 0 0 125 c0
143 -15 197 -61 220 -54 28 -159 13 -180 -26 -14 -27 -27 -23 -31 9 -3 24 -7
27 -35 24z"/>
<path d="M3900 550 c41 -52 89 -91 147 -120 39 -19 43 -24 28 -33 -10 -5 -43
-6 -75 -3 -65 8 -250 62 -250 74 0 5 -16 14 -36 21 -29 10 -38 10 -47 1 -8 -9
-8 -11 -1 -7 6 4 29 -6 50 -22 44 -32 104 -53 216 -76 109 -21 159 -20 165 5
5 17 11 19 62 14 38 -4 98 1 186 17 175 32 503 35 635 5 126 -28 340 -25 340
5 0 5 -11 6 -27 2 -49 -14 -205 -7 -308 13 -79 15 -143 19 -301 19 -160 0
-198 2 -185 12 13 10 9 12 -29 13 -62 0 -153 23 -261 65 -87 34 -115 40 -87
18 31 -24 199 -82 270 -94 43 -7 76 -14 75 -15 -2 -2 -59 -13 -127 -25 -105
-18 -134 -20 -183 -11 -84 16 -160 54 -220 111 -65 61 -80 66 -37 11z"/>
</g>
</svg>
